<mxfile host="www.draw.io" modified="2019-11-25T06:06:36.587Z" agent="Mozilla/5.0 (Windows NT 10.0; Win64; x64; rv:70.0) Gecko/20100101 Firefox/70.0" etag="xx5N9Afmjd9J4bmOHuTY" version="12.2.9" type="github" pages="1">
  <diagram id="1SJtpl7imAzz62Zhkhw1" name="Page-1">
    <mxGraphModel dx="1422" dy="791" grid="0" gridSize="10" guides="1" tooltips="1" connect="1" arrows="1" fold="1" page="1" pageScale="1" pageWidth="827" pageHeight="1169" math="0" shadow="0">
      <root>
        <mxCell id="0"/>
        <mxCell id="1" parent="0"/>
        <mxCell id="VJcRAeQI5A_FNW1bYBen-1" value="" style="shape=image;verticalLabelPosition=bottom;labelBackgroundColor=#ffffff;verticalAlign=top;aspect=fixed;imageAspect=0;image=data:image/png,iVBORw0KGgoAAAANSUhEUgAAAsIAAAKxCAYAAABZpMq2AAAgAElEQVR4nOzdd1QU9xrG8bHFXJOYaBLbURONMYmJJvHeVLuIiiJiAbsoYMMCVkAFG8WuMWJFMbEromCJvYAFC4oRVGwgKtKLSGf3uX94GF0XEJGd3wrP55w5h53Z8qq78HWZnZFARIpo3LgxBg8eLHSGhIQESJKElStXCp2DiubatWuwt7fHgAEDIEkSDh8+XOB1P/74Y9SrVw8mJiYFLrt37y708caNG1fo7U1MTODj41Pg7ePi4iBJEpo1a1bg7d9//31UqFABI0eOhJ+fH3Jzc4v991MQKysrSJKE48ePl/h9U/G98847cHJyEj0GvWDAgAH45ptvRI+BBg0awNLSUshjS0IelagMYghTUXl7e6NFixaoV68enJ2dsWXLFnh4eCA2NrbA29SvXx8GBgbYu3dvgcujR48Kfdzz588XevtX3UdeCI8ePbrA23t5eeGPP/7An3/+Kf8ZZ86cidTU1GL/fb1oy5YtkCQJkiQhODi4RO6TSgZDWP8whBnCRIphCFNRzJkzB40bN4avr+9rvVv65ZdfwsLCQneDFUFeCK9atarItwkJCUG/fv3w66+/Iikp6Y0ef8OGDShfvrwcwlevXn2j+6OSxRDWPwxhhjCRYhjC9CrTp0/Ht99+i+jo6Ne+7dsawnkmTpyI77//vtB3vQuzZs0alCtXDqampvD29mYI6yGGsP5hCDOEiRTDEKbCHDt2DF988QXi4uKKdfu3PYSBZzHct2/f177dn3/+iXLlysHc3Bw5OTnw8/NjCOshhrD+YQgzhIkUwxCmwpiYmBQ7IIHSEcIpKSmoXr06IiMji3ybhQsXQpIkDBo0SN6VhCGsnxjC+ochzBAmUgxDmApy9+5dfPzxx0hLSyv2fZSGEAYAOzs7TJ48uUjXdXFxgSRJsLKygkqlktczhPUTQ1j/MIQZwkSKYQhTQVauXIkhQ4a80X2UlhAOCgpCkyZNXnk9JycnSJIEGxsbqNVqjW0MYf3EENY/DGGGMJFiGMJUEBcXF9jb27/RfZSWEH706BEkScLs2bMLXIyMjCBJEuzs7PK9D4awfmII6x+GMEOYSDEMYSqIu7s7Jk6c+Eb3UVpCOCIiApIkYcaMGQUuPXv2hKOjY4H3wRDWTwxh/cMQZggTKYYhTAXx8vJC79693+g+SksInzx5Es2bN3+jORjC+okhrH8YwgxhIsUwhKkgCQkJ+Oijj4p1/OA8pSWE+/bti0WLFr3RHAxh/cQQ1j8MYYYwkWIYwlQYa2trzJ49u9i3Lw0h/PDhQ1SrVg0pKSlvNAdDWD8xhPUPQ5ghTKQYhjAV5t9//0WNGjUQEhJSrNu/7SGcnZ2N7t27Y/z48W88B0NYPzGE9Q9DmCFMpBiGML3K1q1bUbt2bVy7du21b/s2h3BmZiaMjY1hamqKrKysN56DIayfGML6hyHMECZSDEOYimL79u2oVasWFi9ejKSkpCLf7m0M4dzcXPj6+uK3336TT49cEhjC+okhrH8YwgxhIsUwhKmogoKCMHjwYFSrVg1DhgzBvHnzMHv2bMTFxRV4m88++wwdOnTAgQMHClyioqIKfdyLFy8WevtX3UdeCI8ZM6bA23t4eGDy5MmYMmUK6tevjxYtWmDTpk3y6ZFLgo+PD0NYDzGE9Q9DmCFMpBiGML2uuLg4LF++HA4ODpAkCQcPHizwutWrV0fdunXRtWvXAhcfH59CH2/06NGF3r5r167w9vYudF5JktC0adMCb1+jRg3Ur18frq6uOgvVdevWQZIkBAYG6uT+qXgYwvqHIcwQJlIMQ5h06W3cNUJXuGuEfmII6x+GMEOYSDEMYdIlhvBzDGH9xBDWPwxhhjCRYhjCpEsM4ecYwvqJIax/GMIMYSLFMIRJlxjCzzGE9RNDWP8whBnCRIphCJMuMYSfYwjrJ4aw/mEIM4SJFMMQJl1iCD/HENZPDGH9wxBmCBMpplGjRhg4cKDQGfJCeMWKFULnoJL3xRdfYNCgQUJnyAth0f/RYgjrp3feeQfTp08XPQa9oF+/fvjqq69Ej4HPPvsMQ4YMEfLYDGEihXzwwQdo3ry50Bni4+MhSRImTJggdA4qee+//z7++9//Cp0hNjYWkiRh4sSJQudYvXo1JEnCuXPnhM5BmipUqICePXuKHoNe8P3336Nq1aqix8B7772Hn3/+WchjM4SJFPLFF1+gf//+QmfIe0fYw8ND6BxU8ho2bIgBAwYInSHvHWHRv3HgO8L6qVKlSpg6daroMegFffr0QePGjUWPgfr16wvbdZAhTKQQ7iNMusR9hJ9jCOsn7iOsf7iPMEOYBDMyMkK7du0waNCgUr9UrVoVDRs2FDqDubk5JEnCL7/8Ivzvg0vJLh988IG8n7CoRV+eX+3atYMkSTA2Nhb+78Ll+VK+fHk0a9ZM+Bxcni8NGjTAhx9+KHyO999/H40aNRLy2AxhEqp27dro378/Nm3aVOqXWrVqoWXLlkJnWLVqFSRJwtChQ4X/fXAp2aVWrVpo1aqV0BlWrlwJSZJgaWkpdI4JEyZAkiS4ubkJ/3fh8nypWLEiTE1Nhc/B5fnSokUL1KlTR/gcn376Kdq0aSPksRnCJFTHjh2xf/9+0WMogrtGkC5x14jnuGuEfuKuEfqHu0Zw1wgSjCGsLIZw6cUQfo4hrJ8YwvqHIcwQLtMiIyNx7dq1Qq8TGxuLnTt3wtPTE5s2bUJwcHCh14+KisKVK1eKPANDWFkM4dKLIfwcQ1g/MYT1D0OYIVxmXbp0CTVq1IC1tXWB1wkJCUHNmjUxffp0eHh4wNXVFfXr18fatWsLvH7dunXRp0+fIs/BEFYWQ7j0Ygg/xxDWTwxh/cMQZgiXScePH8cnn3wCQ0PDQkPY0dFR68QLmzZtQqtWrbSue/bsWdSoUQOdO3dmCBeAIUy6xBB+jiGsnxjC+ochzBAuc1QqFZo3b45jx45hwYIFhYawnZ0dXFxcNNYdPHgQP/30k9Z1f//9d+zbtw+rVq1iCBeAIUy6xBB+jiGsnxjC+ochzBAu04oSwq6urhrrjhw5km8I52EIF4whTLrEEH6OIayfGML6hyHMEC7TGMLK+uqrr4SHSmJiol6ECpW8xo0bY8iQIUJniI+PhyRJWL16tdA59u7dC0mS8O+//wqdgzRVrlwZzs7OosegFwwcOBBNmjQRPQYaNmwIKysrIY/NEC7DihLC1apVQ8OGDeWlVq1aDOHXdPz4cbRp0waSJEGSJPTr1w8RERGKz+Hp6YlmzZpBkiSUK1cOkyZNQmpqquJzUMk6duyYxvOrf//+uH//vuJzrF27Fk2bNoUkSShfvjwmT56s+PMrLS0NU6ZMQdWqVSFJEr7//nts2bJF0RlI29atW/HDDz/Iz1F7e3s8ffpU9Fhl2oULF9CpUyf538TU1BTXr19XfI4dO3bgf//7nzzHqFGjEB8fr+gMDOFSwsbGRn4ivbg4OjoWeBu+I6x7vr6+qFChAr799lvMmjULkyZNwscff4waNWogPDxcsTmmTZsGSZLQoUMHuLm5wcrKCu+88w5+/vlnZGZmKjYHlaw9e/agfPny+O677zSeXzVr1lT0P1uOjo6QJAmGhoby86tSpUr45ZdfFHt+5ebmol27dqhUqRKsrKzg5uaGVq1aQZIkzJ07V5EZSNuyZcsgSRJat24Nd3d3DB06FJUqVcLvv/+OrKws0eOVSQEBAahcuTK++OILODk5wdHREXXq1EHVqlUV3Z3ojz/+gCRJ+P333+Hq6orRo0ejSpUq+Prrr5GcnKzYHAzhUiIqKgqXLl3SWmJjYwu8DUNYt9RqNerXr6/1Df/+/fuoXr36a/09vYmIiAiUL18eY8eO1Vh/6NAhSJKEpUuXKjIHlSyVSoV69eqhRYsWGs+viIgIVK9eHX379lVkjvDwcJQvXx7jxo3TWH/w4EFIkoQ//vhDkTm2bdsGSZKwfft2jfWWlpaoWLEiHj58qMgc9FxKSgree+89mJuba6zfv38/JEmCh4eHoMnKtubNm6NJkyYav7GJi4tD/fr10bZtW0VmSEpKQpUqVdCnTx+o1Wp5/cWLF1GpUiVMnTpVkTkAhnCZxhDWrTt37kCSJGzcuFFr2+jRo/Hxxx8rMsfff/8NSZJw9+5drW3NmzeHsbGxInNQybp16xYkScLmzZu1ttnY2ODTTz9VZI6//voLkiTh3r17Wtt+/PFHmJiYKDLHyJEjUatWLa31YWFhkCSJu0gIcPToUUiShICAAK1tTZs2RY8ePQRMVbalpKRAkiQsXrxYa9usWbNQoUIFZGdn63yOvDdizp07p7Wtc+fO+Pnnn3U+Qx6GcBmTnp6Ofv36wczMDM2aNcPnn38OMzMzmJmZ4dGjRxrXLWoI5+bmYuDAgTAzM0Pz5s1Rt25d+T7zi68XleYQvn//PiRJwpo1a7S2DR06FLVr11Zkjq1bt0KSJISEhGht+/rrr9GzZ09F5qCSFR4eDkmS4OnpqbVtyJAhqFOnjiJzbNmyBZIkITQ0VGtb48aN0bt3b0XmGDt2LKpXr47c3FyN9VeuXIEkSfD29lZkDnru1KlTkCQJhw8f1trWqFEjxX4rRs89ffoU5cuX1zo0KgDY29vjnXfe0XoN6cLx48chSRKOHTumta1169Zo2bKlzmfIwxAuY1QqFU6dOoXjx49rLCdOnND6X+DDhw8RFRWlsS49PV1rh3q1Wo2AgACt+zx+/Pgr9w9UKoRffGG//CLP70Wfm5ur8eua4vr+++/x5ZdfauyicvbsWbz77rsYPXr0G99/UcTHx6NKlSowMTHR+Df28PCAJEnYtGmTInOUZgU9v9RqNTIyMnT2uM2aNUPjxo0RFxcnrztz5gwqV66stSuMrsTGxuI///kPunfvrvH8Wr58uaLvxB45cgSSJMHd3V1el5GRgQ4dOqBq1apISkpSZA56LjMzEzVq1EDLli2Rnp4ur1+6dGm+u7GQMgwNDVGrVi2ND9WGhITgo48+gpmZmSIzZGRk4NNPP9V6buzcubPAd6x1hSFMQikVwlOmTEFWVhaio6Mxb948ef1ff/2ldciWvXv3wt3dHZMnT0ZMTMwbPe6lS5dQtWpVfPLJJxg6dCh69eqFSpUq4bvvvlP0B7OXlxfKlSuHL7/8EiNGjEC7du0gSRLMzc1LJPjLuilTpiA7OxuPHz/G/PnzATz7D4irqyuWL1+OOXPm6ORxL168iA8++EDr+dW0aVNFP2yybt06lCtXDo0bN8aIESPQtm1bSJKk+Dt+VlZWkCQJbdu2xfDhw/H555+jQoUK2Llzp6Jz0HN+fn6oWLEiGjRogBEjRshHOBkwYIDo0cqsW7duoUaNGqhatSoGDRqEfv364T//+Q8+//xzrd8M61Lec6N+/foYNmwYjIyMUK5cOXTo0AE5OTmKzcEQJqGUCuHr169j3rx5mDRpkhwI0dHR8Pb2xsSJEzWu6+TkhNzcXOzfvx9nzpx548e+c+cOLC0t8fXXX+OHH36Ak5OTkMOWnTp1Ct27d0ejRo3QokULrF69mhFcQkJDQ7FgwQJMnDhRK0Czs7NhZ2ens8e+ffs2hg4dKj+/nJ2dhRya6tSpUzAxMUGjRo3QsmVLrFmzRvHnl1qthqenJ1q0aIEvv/wSvXr1woULFxSdgbRduHABPXv2lJ8bnp6e/N4j2KNHj2BjY4Nvv/0WTZs2xcSJE5GQkKD4HJcuXYK5uTm+/PJL/PLLL1i8eLGiEQwwhEkwJfcRnjhxIpYvX57v+hdt2bIFgwcPhoGBgZBvDPR2mjBhQr6fgndzc3vlvvJERCQGQ5iEUiqE09PTMXz4cIwYMULrnYiXQ3js2LFQq9UIDw/PN5yJXlbQ8+uff/7B1q1bBU5GRESFYQiTUEqF8Pz583Hnzh2cPHlS/vCOSqXC06dPMW7cOKSlpcnXdXBwQExMDHbt2oU9e/bofDZ6+82bNw93797F8ePHsW3bNgDPfvU4evRopKamajy/iIhIfzCESSilQjgwMFD+Ou+4hQ8fPsTSpUuxdOlSLF++XH4n7+nTp1i5ciUOHjyo87modHjxWJh5X1+5ckV+fq1fv17UaEREVAiGMAlVmo8jTFRWHT16VPEPvBARFQdDmIQq7SH86NEjdOvWDR07dtRYzM3NFT281enTp2FoaKgxQ6dOnWBnZ8dPb7/FgoKCYGBggC5duuDIkSPo1q0bjIyMMHDgQKSkpCgyQ3x8PBwcHDSWpk2bws7ODg4ODiVy5JXX5evrCyMjI3z11VfIzc1F27ZtFfv7IE0HDhyAoaEhTE1NceTIEXTq1AlGRkYYNWqUxqnBSTmZmZmwsLBAp06dNH4mdO7cGTdv3lRsDicnJwDAgwcP0LNnT5iamqJr165o27YtLl26pNgcDGESqrSH8LBhw/I9FnFoaKjWh/R0Ra1Wo1evXvm+Q+fl5YUdO3YoMgeVvEGDBiEjIwPR0dGoXbs2oqOjATzbFcjW1laRGbKyshAUFKSx9O7dGydPnkRQUBDi4+MVmeNFeScFyDtr4tKlS+Hv76/4HGWdWq2Gubk5VCoVwsLCUK9ePfnQfrt379Y4+QkpZ/78+Th9+rTW+pSUFEWP/Z131smhQ4fi9u3b8voHDx7A2tpasTkYwiRUaQ9hCwuLfNer1WoMGjRIkRkyMzMxbNiwfLfduHEj31Nt0tthypQp8tc9evTQ2DZ+/Hilx5GNGDFC0d94vCzvtZUXwitWrMCJEyeEzVNWZWdnY+rUqfJlfXqOlmXDhw8v8KyvSv1cAp6HcP/+/bW2OTg4KDYHQ5iEKu0hbG9vj7179yI+Pl5e4uLisH79ekVPIdmrVy9cu3ZNY46YmBiMHTtWyK+uqWTY2trKpyd98ZTKDx8+1AgQXYqKisKQIUPg4eGBwMBAXLt2DT/++CNUKpUij5+ftm3b4uzZs+jYsSNu3bqFPn36aJ0annRPrVbDxsZG/m3Ui8/R4OBgRb8H0nPbt2+Hm5sb4uLiNH4mnDlzRutMq7rUvXt3xMfHw9raGmFhYfL68PBw2NjYKDYHQ5iEKu0hnJ2djTlz5sDCwkJjWbJkiaKhEBsbCzs7O40Zhg4dit27dys2A5W84OBgjSOi5NmxYwfCw8MVmUGtVuP+/fs4cOAAFi5ciOHDhwt/XoWGhmLs2LGwsrKCtbU1li1bxn3hBTl58iRu3Lihtd7T05MnLBJo/fr1GDp0qMbPhKlTpyq6L/3EiRNhZWUFKysrje8ZCxcuRGRkpGJzMIRJqNIewkRERKS/GMIkFEOYiIiIRGEIk1BlOYSPHDmi2GM9fPgQmzZtko8qkCc2NlbjZBBEpcG9e/fkr+Pj4zU+kU76ITMzE6dOnRI9Br1EyZ9LhVFyDoYwCVWWQ9jc3FyRx8nMzES7du2wYsUKGBkZYd++ffK2K1eu8KgRVOp07doVarUaqampaN26NX7//XceR1jPxMbGKvqBKCoapX4uvYqSczCESajSHsLTpk3DyJEj8126d++uyAz37t2Dq6srgGfHfJ0wYQJsbW2RkZHBEKZSR6VSYfDgwQAAOzs7HDlyBH///TdOnjwpeLKyR6VSwcbGJt/vfxYWFgxhQdasWVPgz6UffvhBsTkcHBwKnOPlQ+3pEkOYhCrtIbxs2TJ0794d165dQ0hIiMaSdwxFXUtPT4elpaXGOj8/P7Rr1w6bN29mCJcCmZmZGscFValUePLkieJzPHnyROPoDBkZGQUer1RX1Go1+vbtiwMHDmD48OEAgOXLl/MwgYJMmDABNjY2Wt///P39GcKCnDhxAj/++COCgoK0/l26du2q2ByLFi1C7969tWZQ8ucjwBAmwUp7CAPP3hXO73BS+R1EXFfmzJmjdbi2yMhItG7dmiFcCixevBhLly6VLwcEBCj6/MpjZmaGCxcuyJfnzZuH5cuXKz7H8uXLYWxsLP9nYMCAAUL+Y0DP36F/+ZS58fHxGDNmjKCpaOfOnXB2dtZa369fP0XnmDJlCvbu3au1XsnvXwxhEqoshDCAfI9hmpWVJWASTTk5OUhKShI9Br2h9PR0ZGRkyJdVKpWQf9ekpCSN53paWprGXKIo/a40aVKr1Xr7PbAs05d/E9FzMIRJqLISwkRERKR/GMIkFEOY6M0UdMa05ORk4XPk5OTg6dOnis4BPHsHOCMjQ2PhmeWIKD8MYRKKIUxUfKtXr8Yvv/yCLl264O7duxrbzMzMFJlBrVZj5MiRaNGiBaysrDQOU3b58mW4ubkpMseLTE1N0blzZ3Tu3BmdOnVC7dq1ERERofgcRKT/GMIkFEOYqPjMzMygVqvx4MEDGBsbY9OmTfI2pT51HRkZifHjxwMAAgMD0aFDB5w/fx7AsxDOO3SfSB4eHvJMREQvYgiTUAxhouIbOnSo/HVOTg6cnZ1hYWGBlJQUxUI4OjoaDg4O8uWkpCT069cPbm5uuHjxol6E8Nq1a3Hs2DHRYxCRHmIIk1BlJYT37NmDPXv2yJdv3LiBuXPnKj6Hm5sbbt26JV/etWsX/Pz8FJ+DSsbo0aMRFRWlse748eNo1aqVYidsAZ69+/ziPrhqtRorV67E999/LySEjxw5gv3792Pfvn3YtWsXWrZsqbXrCClr9erVGqdzP3HiBLy8vMQNRLh+/TrmzZsnX05PT8fIkSMVn2PXrl0ah1C7du0aFixYoNjjM4RJqLISwleuXEFwcLB8OTY2VkiA7t27F/Hx8fLloKAgXLlyRfE5qGQUdHiymJgY7NixQ7E5EhMT810fHByMgIAAxebIs2DBAri5ucHNzQ3u7u44cuSI4jOQphMnTmjsp33r1i34+/sLnIhiY2M1fv7m5uZiw4YNis8RFBSEf//9V778+PFjRbuAIUxClZUQJiIiIv3DECahGMJExZeenl7gtri4OEVmUKlUBZ40Izc3t8B3i4mI9AFDmIQq7SGckZEBLy8vbNq0CampqXBycoKJiUm+pzzWpaioKKxevRr79+9HTEwMhg8fjh49emDLli2KzUAlz9raGpMnT0Zqaqq87s6dO+jdu7dipzZOTk5Gx44dsXLlSuTm5srr/f39YWhoiOPHjysyR3Z2NmJiYgAAISEhMDU1hZGRkbyEhoYqMgdpCgwMhJWVFXbu3KmxPiUlRcjpt+nZB1rt7OwwY8YMrf9Mu7u7KzbHjRs3YG1tjbVr12od51vJORjCJFRpD+Fx48Zh48aN8PLywmeffYbt27fjyZMn8PT0xMKFCxWZQaVSwdTUFL6+vnB2dkajRo1w7do1JCYmYsyYMUL24aSSc+DAAbRu3Rrbtm2Dk5MTjIyMEBYWpugMubm5+PPPP9GhQwccPHgQAwcOxLBhw5CQkKDYDKdPn4aTkxOAZ8cRfvDgAczMzJCeno7Vq1dzf1QB1Go1OnTogOvXr2PWrFmwtraW/9MWExMDGxsbwROWTePGjcM///wDPz8/dOzYEdeuXZO3KXW0GQDo1q0bgoOD8eeff8Lc3Fzjt1hKzsEQJqFKewi/eHgrU1NTjf/19u3bV5EZXjy8lVqthqmpqbwt7wcUvd0OHz6MGjVqoEGDBrh3756QGdRqNdzd3fHJJ5/AwMBA48QaSjM3NwcA9OvXDwDg5eXFEBYgMzMTY8aMkS/7+/ujXbt2uHjxIkNYoOHDh8tfx8TEoEePHvDw8IBarVY0QF+c4+rVq2jfvj2OHj0KgCFMZUhpD2ErKyscOHAA+/btw6effiq/yAMDAzF16lRFZsjJyYGJiQn8/f2xfPly1K1bF5GRkQCApUuX8vBpb7GUlBTY2NhgyJAhiIuLQ3BwMDp27Ij58+cjOztbsTnCw8PRrVs3zJkzB1lZWfDz80OrVq3g4+Oj2AxXr17F2rVrATwP4a5duyIzMxMODg4ICQlRbBZ6Lu+kL3ni4+PRs2dP2NvbM4QFcXJywo0bN+TLKpUK8+fPR69evdChQwfF5ujXr5/G96mnT5/C0tIS9vb26NWrl2JzMIRJqNIewikpKViwYAEWL16M+/fvw8LCAu3bt4elpWWhH3Qqabdv34abmxs8PT1x8+ZNdOnSBYaGhpg9e7bWvln09hgxYoTWiSLUajU2bdqk2PF7ExMT0b9/f63dMdLT0zF79mzs2rVLkTni4+MRFBQEAFi8eDESExNx9OhRtG7dGtOnT1dkBtJ26NAhjX3YgWfP0SVLlsDZ2VnQVGXbo0eP8j3T4rlz52BoaKjYHOfOncOjR4+01m/cuFHR/yQxhEmo0h7CREREpL8YwiQUQ5iIiIhEYQiTUGU5hPP20xUpKysL0dHRoscgKlHZ2dk4c+YM/P39ERAQgDNnzmj9ep50Lzc3F7NmzUJSUpLWtoMHD+Lvv/8WMBWtX78+3zOKRkREKPbZFeDZIdJePkU8AJw9e1bRQ+sxhEmoshzCeR/oEenq1atwcXERPQZRierRowdGjx4NBwcHODo6wtHREeHh4aLHKpMCAgLQvn17eHl5Qa1WIzw8HL1794a9vT3S0tJEj1cmPX78GIMHD8aYMWOQlJSEjIwMzJ49G127dlX00ItXr15Fp06dsGTJEuTk5CA6OhpDhw7F8OHDFT0RD0OYhCrtIbxnzx5s3Lgx36Vnz56KzJCenl7gDK6urgxhKlVUKhWsrKxEj0EvyM7OhpubG5o3b47//ve/CA4OFj0SATh69Ch+/PFHNGnSBBs2bBDywWmVSoXVq1fj+++/x3fffSfkMIcMYRKqtIewpaUlunTpglWrVmktPXr0UGSGjIwM/PDDDxgzZozWDNOnT2cIU6mSk5OD0aNHix6DXnDlyhW0a9cO8+fPR9euXTF16lRFj5pD2pKSkjBs2DBYWlrCwcEBxsbGuHPnjuJz3L59G0ZGRpg5cyb69u2LUaNGITk5WdEZGMIkVGkP4ezsbJiYmOR79jYld42IiopCy5Yt5VPQ5uGuEVRa3A9uZ0oAACAASURBVLlzBx4eHvDw8ECbNm3kr/OW/A7TRLqlUqkwdepU9OnTBw8fPgTw7NBpO3fuRPv27XmSE0H++ecftGvXTuPQizdu3ICpqSnmzZun2BxLlixBt27dNHbHOHLkCAwMDODr66vYHAxhEqq0hzDwbNeElwMUeHZWNyVFR0cjMzNTY116erqwM5ERlaSHDx9ix44dBS7x8fGiRyxzVCoVAgMD892WlpaG0NBQhSciALh8+TIyMjK01qvValy6dEmxOQIDA/PdHSM7O1vR3WcYwiRUWQhhIiIi0k8MYRKqtIdwQftc5eTk4OrVq4rMkJWVhfv37+e7LTk5Gbdv31ZkDiIiIn3DECahSnsIz5gxA+bm5oiIiJDXnTp1CgYGBoqdevbp06cYMGAAJk6ciCdPngB49itLLy8vGBgY5Hs8SaK3WUBAALp06YJffvkFubm5MDY25oeziChfDGESqrSHMACEhobCyMgILi4uGDBgAKytrZGQkKD4HAcPHkSbNm2wfPlytG/fHu7u7sjOzlZ8DiJd69mzJ1QqlXyIwsWLF+f7gVUiIoYwCVUWQlitVmPDhg347rvv8O233+L06dNC5sjMzMSkSZPw448/onXr1vyQHJVagwYNAgA5hFesWIETJ04InIiI9BVDmIQq7SEcERGB7t27Y+bMmcjMzJTPnDNixAhFz5xz9uxZtGnTBps3b4Zarca///6Lzp07Y/78+XxXmEqdtm3b4t69ezAxMUFqaiqGDRum2D75RPR2YQiTUKU9hB0dHfM9ZeW5c+ewdOlSRWZISkrCpEmTtHbHUKvV2Lp1q6LHayRSwtmzZ2FmZoauXbvC2NgYU6dOhUqlEj0WEekhhjAJVdpDmIiIiPQXQ5iEYggTERGRKAxhEoohTEQlJSgoCDExMUhNTYWPjw98fHywe/duREZGih6NiPQUQ5iEYggTUUnw9/dHjx49cO/ePVy+fBm9e/fGhg0bsHLlSjRv3hwpKSmiRyQiPcQQJqEYwkRUEjw9PXH48GEAwOXLl+Hu7i5v8/DwwKlTp0SNRkR6jCFMQjGEiagk/P333/D29gYAZGdnIzk5Wd62dOlShjAR5YshTEIxhImoJDx+/Bi//vorHBwcMHXqVHmZNGkSOnbsiNTUVNEjEpEeYgiTUAxhIiopCQkJCA4OxpUrV+QlODiY+wcTUYEYwiQUQ5iIiIhEYQiTUAxhIiIiEoUhTEIxhImIiEgUhjAJxRAmIiIiURjCJBRDmIiIiERhCJNQDGEiIiIShSFMQjGEiYiISBSGMAnFECYiIiJRGMIkFEOYiIiIRGEIk1AMYSIiIhKFIUxCMYSJiIhIFIYwCcUQJiIiIlEYwiQUQ5iIiIhEYQiTUAxhIiIiEoUhTEIxhImIiMqO9PR05OTkaFzu37+/sHkYwiQUQ5iIiKjsWLt2LY4cOaKxrl+/foKmYQiTYAxhIiKi0m/Pnj1YtmwZ+vbtCxsbGyxbtgzLli3DokWL0KpVK2FzMYRJKIYwERGRbl29ehV79+7VWA4cOICEhATFZjh9+jR2794NGxsbTJ8+Hbt375aXO3fuKDbHyxjCJBRDmIiISHfOnTuHVq1awd3dHQsXLpQXZ2dndOzYEbm5uYrOc/78eaHh+zKGMAnFECYiItKdGTNm4Pz58/luGzt2LKKjoxWeSL8whEkohjAREZHuzJw5ExcuXMh327hx4xATE6PwRPqFIUxCMYSJiIh05+LFi/jll1/g4OAAFxcXzJs3D+7u7rC3t4exsbHiu0YAQFRUlOKPWRCGMAnFECYiItKtsLAwHDt2TGM5efIkkpOTFZ/l5MmTGDlypOKPWxCGMAnFEKbSLDY2Fp6enq91m6dPn2L8+PH5bktMTMSsWbMwYcIEXL58uSRGfCM+Pj6wtbXFihUrNA6Qr1arsWjRIvnygwcPsGPHjhJ5zNTUVNja2sLc3Bzm5ubw9/eXt6Wnp2PChAny5ZCQEPz111/y5X379mHQoEGwtLSEhYUFTp06VSIzEVHRbdy4Ua9eewxhEoohTKXZqFGjEBAQUOTrx8fHo0OHDqhVq5bWNpVKBWNjYwQFBSEmJgbW1tYIDAwsyXFfy9q1a+Hi4oLExEQcOHBA6x2eli1bIjMzEwCwYsUKbNmypUQed+TIkfDz8wMApKWlwcjISN6WnJwMSZLkOD516hSmT58ub1+6dCmOHz8OAMjIyMB///tfpKamlshcRFQ0oaGh+PPPP0WPIWMIk1AMYXpbJSYmIjw8vMDtISEh6NWr12vd56ZNmxAYGIiWLVtqbYuOjoalpaV8+cSJE3Bzc5MvR0ZGIikpSb58/fp1ne77169fP6SkpMiXO3XqpLF9ypQp8rs+pqamiI+PL5HHNTMzQ1pamnw5KytL/jo5ORn/+9//0L59e6jV6kJDGAD69OmDx48fl8hcRPoqNzcXtra26NKlC9zc3KBWq4XOc/LkSfz0009o0aIFWrdujdatW2PIkCHC5mEIk1AMYXpbHThwAPPmzStwu7GxMW7cuFGs+84vhKOiomBtbS1fPnXqFFxcXOTLe/fuhbOzM4BnP/h++eUXZGdnF+vxi6JPnz4a76Z27NhRY/vhw4fh7OyMzMxMdOjQocQe18zMDKmpqdi3bx9mzpyJ1atXy9uSk5PRvXt3ODo6wtvb+5Uh3LdvX4YwlXqrV6/GX3/9hfT0dNja2uLSpUuiR9IrDGESiiFMbxuVSoXs7Gz4+fnBzc0N2dnZUKlUGtc5ePAgRo0apXXb3NxcPHz4UGPJ713b4oRwbm4ufvvtN2RnZ2PPnj1wcnJ6kz/mK70qhNPT02FgYIDDhw9jzpw5Jfa4eSEcHR2N0NBQrV0junfvjuTkZPz22284evQoQ5jKPCcnJ0RERAAAtm3bht27dwueSL8whEkohjC9bQ4dOoQ+ffqgVatWaNasGfr06YMNGzbI23Nzc/H777/ne2zO69evo02bNhrLrVu3tK5XnBAGADc3N2zfvh1GRkZ48ODBm/wxX+lVIZy3zsrKCkFBQSX2uGZmZnjy5Il8uXv37vLXeSEMAEuWLEGfPn24awSVeU5OToiMjAQA7Nq1C97e3oInevYf5YiICHl59OiRsFkYwiQUQ5jeVgXtGrF27Vq4urq+0X3nF8JpaWno1q2b/O7zunXrsH79eo3rxMTEoFmzZujZs+cbPX5R2Nra4urVqwCAJ0+eaLwzm8fV1RV169bVesf8TQwYMAD37t0DACQlJaFt27bythdDODMzEw0bNiw0hA0MDJCQkFBisxHpIy8vLxgYGKBDhw5o37492rVrBwMDAxgYGMDQ0FDx10BiYiLatGmDFi1aoF27drCwsMCvv/6q6AwvYgiTUAxhelsdPXo0308+9+rVS+PDXK9j9erVMDc3R/369WFubo4pU6ZobN+9ezdMTU0xYMAAODo65huYVlZWOHbsWLEe/3XExcVhwIABGDx4MMzMzPLdH/rSpUv57iLyJoKDg9GlSxf0798fhoaG2Ldvn7ztyZMn6Nu3r3x5+/btGrtlrFy5EsbGxhg6dCjMzc3h6uoq/INDRGXNtm3bsG3bNmzZsgW+vr4AwA/LUdnFECYiIio7/vrrL/j6+mLr1q3w8fEBAFhYWAibhyFMQjGEiYiIdOfEiRNYuHBhgcuL+9wrISAgAHPmzEFYWBi6deuGNWvWaHz+QWkMYRKKIUxERKQ7oaGh8PX11VjGjBmDatWqYdasWTo9zGJ+1Gq1fGbMoKAgeHp6Ij09XdEZXsQQJqEYwkRERMq4cuUKunbtChsbG0RHR4seRy8whEkohjAREZFuRUREYNCgQTA3N8/3kI1lGUOYhGIIExER6Y6XlxfeeecdNGnSBBYWFlqL6EMIpqenY+7cucIenyFMQjGEiYiIdCcpKUnj5BUvLyV5nO+i2LFjB86dO6exrkePHorO8CKGMAnFECYiIir97t69i8uXL2P69OlYsWIFLl++jMuXL+P8+fNo166dsLkYwiQUQ5iIiKj0W7lyJSZOnIiOHTuiZ8+emDhxorz4+fkJm4shTEIxhImIiHRn3rx58mnJQ0NDER4eLm+bNWuW4keP8PPzw8WLFxV9zMIwhEkohjCRGEU9tbBarRZ+GmKVSiV8BqK3lZOTE8LCwgA8O6vbi+++Tpo0CQ8fPhQ1ml5gCJNQDGEiZeXk5GD8+PFwcXHBzJkzX/lBmUOHDuHYsWMlPkdGRgZWrVpVpOvu3LlTr95BInqbMIQLxxAmoRjCRMrKzMyEtbW1VgBnZ2fjyJEjOHz4sLztyZMncHJygrOzM27evFno/SYkJMDX1xd+fn54/Pixxv36+flpfEo8Li4O3t7euHDhgsZ9XLx4Eb6+vjh06BCysrLk+504cSLmzp2Lu3fvvtGfnagscnJywoULF5CYmIgVK1Zgy5YtSExMRGJiIsaMGaNYCKvVavl1nScqKgrHjx8X+hsfhjAJxRAmUt6VK1cwfvx4pKWlyeucnZ1x/PhxBAYGYtmyZQCeReyaNWvg5eWFpKSkQu/T398fnp6eCAsLg6WlpbzexcUFwcHB2LFjB3bt2gXg2XFDb9y4AVtbW437sLW1xYMHD3Dx4kVMmzYNwLNwX7x4MXbu3ImUlJQS+fMTlSV+fn6wsrLKd7G2tlbsdbVp0ybs3LlTvnz+/Hk0b94cvXv3houLiyIz5IchTEIxhInEiIyMhIWFBdLT0wEAw4cPx+zZszF79mzMmTNHvt6hQ4dw9OjRV96fv7+//FqeMmWKvN7R0RHAs10hnJ2dNW4zefJkjcuTJk2Sv7azs5O/3rlzp9a7x0T0dunZsycyMjIAPPv+07p1a/mDeqampsLmYgiTUAxhImUlJyfj2LFjyM3NhZ2dHe7cuQMAGD9+PFJSUpCVlYXTp0/L1z98+DB2796N+/fvIycnp8D79ff3h4WFBdzd3eHu7i6vd3BwQHx8PE6fPo1169YBePYr0tzcXEycOBG5ubnydV8M4fHjx8tfe3t749ixYwgPD1f84P9EVDLMzMyQk5OD5ORkGBoa4vbt2/I2Q0NDYXMxhEkohjCRstRqNfbt2wdXV1ecOHFCXn/v3j0sXLgQc+fOxbVr1+T1KSkpWLJkCVatWqURrS978R3hF6WkpGDZsmXYvn27vB9gRESEHMzz58+X1wcEBGjcX56EhAQsXrwY69at49EjiN5S3t7e6NmzJ1q1aoXAwEB5/Y0bNzB06FBhczGESSiGMFHp8OTJEyQkJIgeg4j0WGhoKGJiYjTWPXz4EFFRUYImYgiTYAxhIiIiEoUhTEIxhImIiEgUhjAJxRAmIiIiURjCJBRDmIiIiERhCJNQDGEiIiIShSFMQjGEiYiISBSGMAnFECYiIiJRGMIkFEOYiIiIRGEIk1AMYSIiIhKFIUxCMYSJiIhIFIYwCcUQJiIiIlEYwiQUQ5iIiIhEYQiTUAxhIiIiEoUhTEIxhImIiEgUhjAJxRAmIiIiURjCJBRDmIiIiERhCJNQDGEiIiIShSFMQjGEiYiISBSGMAnFECYiIiJRGMIkFEOYiIiIRGEIk1AMYSIiIhKFIUxCMYSJiIhIFIYwCcUQJiIiIlEYwiQUQ5iIiIhEYQiTUAxhIiIiEoUhTEIxhImIiEgUhjAJxRAmIiIiURjCJBRDmIiIiERhCJNQDGEiIiIShSFMQjGEiYiISBSGMAnFECYiIiJRGMIkFEOYiIiIRGEIk1AMYSIiIhKFIUxCMYSJiIhIFIYwCcUQJiIiIlEYwiQUQ5iIiIhEYQiTUAxhIiIiEoUhTEIxhImIXi0tLU30CESlEkOYhGIIExEV7unTpxgyZIjoMUrEhQsXEBISInoMIhlDmIRiCBMRFS41NRUWFhaixygRbm5u8PT0FD0GkYwhTEIxhImI8hcYGIi2bduiZcuWqFmzJtq2bQtzc3PRY70RhjDpG4YwCcUQJiIqHN8RJtIdhjAJxRAmIipcWloaRo4cKXqMErFo0SL8/fffoscgkjGESSiGMBEREYnCECahGMJEREQkCkOYhGIIExERkSgMYRKKIUxERESiMIRJKIYwERERicIQJqEYwkRERCQKQ5iEYggTEeUvJCQEM2bMkC+np6djwIAB4gZ6A0uXLoW/v798+fDhw1i5cqXAiYieYQiTUAxhIqL8JSYm4vjx4/JllUoFb29vgRMV37lz5/Do0SP5cnh4OC5cuCBwIqJnGMIkFEOYiIiIRGEIk1AMYSIiIhKFIUxCMYSJiDSpVCrMmTMHdnZ2iIyMxLZt2zBs2DC4u7sjIyND9HivJSIiAqNHj8b8+fORnJyM2bNnY8SIEdizZ4/o0YgAMIRJMIYwEZGmhQsXYtu2bbh69SqaN28OR0dH3L9/H97e3rCwsBA93msxMzPD9evX4eXlhYYNG+LgwYNyHL+t+ztT6cIQJqEYwkREmqZMmSJ/PXDgQCQkJMiXx40bJ2KkYsnJycHUqVPly127dtXYNn78eBFjEWlgCJNQDGEiIk2Ojo7Izc0FAAwdOhRpaWnytrFjx4oa67Wp1WrY29vLl/v06SN/nZCQAGdnZxFjEWlgCJNQDGEiIk3nz5/HihUrAAAPHjyAWq0GAAQGBmL+/PkiR3ttCxYsQEhICAAgMjJSXj9jxgxcu3ZN1FhEMoYwCcUQJiIiIlEYwiQUQ5iIiIhEYQiTUAxhIiJNq1atQkBAgNb6mzdvYsKECQImKp7c3FxMmTIF0dHRGuvVajV27tyJ9evXC5qM6DmGMAnFECYi0pSYmIhRo0ZhyJAhiImJwZMnTzBlyhT07t1bYz/bt0FQUBAMDQ2xbNky5OTk4Pr16zA2NoaLiwuysrJEj0fEECaxGMJERPkLDAzEt99+iwYNGmDnzp3yh+beNrm5uVi6dCkaN26M5s2b49atW6JHIpIxhEkohjARkbaYmBj0798f48aNg6urKzp06IB///1X9FjFcvr0abRu3RqrVq2CmZkZxo4di5SUFNFjEQFgCJNgDGEiIk0+Pj4wMDBAYGCgvC4iIgL9+/fHtGnTBE72elQqFcaNGwcrKyvEx8fL6w8ePAgDAwMcOnRI4HREzzCESSiGMBGRphs3biAnJyffbTdv3lR4muJTq9XyMYRflpWVhXv37ik8EZE2hjAJxRAmIiIiURjCJBRDmIiIiERhCJNQDGEiIiIShSFMQjGEiYjyd/PmTaxcuRKrVq16qw85plKpcOTIESxduhRbt27lESNIrzCESaiihPDChQsRFRX1yvuKjo7G7Nmztdbb29sjOTlZa/39+/fh4OCAIUOGYPr06bhy5YrWddRqNcaNG4cRI0ZoLZcvX37lTAUZNWoULC0tYWlpCWtra0yfPh1xcXEFXl+lUmHZsmWvPJh+VlYWRowYUey5XrZs2bK36sM5c+bMwZ07d0SPQfRG1Go1Jk6ciHLlykGSJEiShHLlysHW1hYqlUr0eK8lOjoaP/30k/znkCQJ1apVw969e0WPRgSAIUyCFSWEW7ZsWaTovHTpEpo1a6a1/tNPP9X6dPL169dRt25dLF68GD4+Ppg3bx6aNWuGXbt2ad3ez88P3t7eGDx4MDp27Ahvb294e3vj8ePHr5ypIJUrV8aBAwdw4sQJHD58GE5OTqhXrx4yMjLyvX5mZiZatGiBgwcPFnq/KSkpqFSpUrHnelnbtm3fqnfsf/75Z5w4cUL0GERvZOXKlZAkCQ4ODkhOTkZiYiKmT58OSZIwd+5c0eO9lnbt2uGjjz6Cr6+vfGa5Nm3aoHLlyrh+/bro8YgYwiSWqBB2dnbGyJEjNdap1epC321ZuHAhRo0a9co5iqJy5cpITU3VWPftt99qHDe0OFJTU8t0CP/6668MYXrrfffdd2jfvr3W+t69e6NWrVoCJiqe69evQ5IkrFq1SmN9cnIyqlatirFjxwqajOg5hjAJJSqEz549i48//viVuxq8SNch3LRpU5w5c0ZjXUJCAjZu3Cgvjx49KvA+jx07Bk9PT5QvX16+fmxsbL7XffLkCQ4fPoytW7di8+bN8PHxwdOnT7Wu17ZtW0ybNg3btm3D5s2bsWfPHiQmJmpdLysrC9u3b8fmzZuxZcsWeHt7Y+/evYiIiMj38aOiouDn54ddu3bhwIEDhb67fvv2bWzfvh0+Pj64detWvqeZvX79OjZu3IhGjRph6tSp2LhxI65evVrgfcbGxuLAgQPw9fVFYGBgvvcZFhaGmzdvIi4uDnv27IGvry+Pe0qKeO+992Bvb6+1ftGiRZAkCenp6QKmen379++HJEkICgrS2vbrr7+ia9euAqYi0sQQJqFEhTAA/PHHH2jUqBFu3LhRpFlLOoTPnj2Lq1ev4syZM5g3bx7q1q2LpKQkjetdv34dY8eOxdixY/HNN99g+fLlBd7nqlWrYGVlJe9LaGtrm+/+vYmJiWjQoAGaNWuGAQMGYPDgwejQoQPq16+vFYRt27bF4MGD4erqChcXF4wYMQI1atTQOtXrzZs38eGHH8LFxQVff/01unTpgmnTpqFWrVrYvHmzxnUPHz6M2rVro1evXhg2bBj69++POnXq4NixY1qzbtu2DQ0aNICLiwvGjBmDJk2aoEWLFlrX8/f3x4gRI1CzZk306tULtra28PPzy/fvaePGjfjwww9haWkJGxsbmJiYoGPHjsjNzdW4nqurK6ysrNCpUyfY29tjzJgx+OCDD96qfabp7fTjjz/i999/11rfpUsX1KtXT8BExXP79m1IkoQlS5ZorI+JicF7772HCRMmCJqM6DmGMAklMoQBYMeOHahZs2aRTvVZ0iFsaGgIQ0NDmJiYYMyYMbh7926htxk6dGihIQwUbdeIvXv3okmTJlrhl98uBfntGjFu3DitX2nevHlT/gG9f/9+tG7dGgCwYsUKmJqaalw3OTlZ67E9PDxgbGys9fh9+vTR+vBfZmZmgX+2ouwa8c0332Dfvn0a6wwMDBAQEKCxztXVFQYGBhqz/vvvvwXux01UUjZu3AhJkjBy5EhERUXh0aNHGD16NCRJwooVK0SP91q6deuGKlWqYOPGjUhNTcXFixfRvHlzvP/++wgPDxc9HhFDmMQSHcIAcObMGdSsWRMeHh6F3r+ud414lZIK4R07dqBbt25Fesz8Qnju3LmwsrLSWPdiCJ84cQI//vij/FidO3fWut+IiAjMnTsX06ZNw7Rp02BmZoY2bdpoXe/27dto1KgRhg8fXqRDLhUlhKtWrYorV64gKipKXszNzbFhwwaN67m6unIfRhLGxcUFFStWlI+0ULFiRcyaNUv0WK8tKSkJBgYGGkeNqFOnDk6dOiV6NCIADGESrKRDuGnTplrrP/nkk1fu23n9+nV88MEH8PHxKfA6pSmEX36XtiD5hfCCBQswbNgwjXWvE8IhISGoU6cOZs2ahTVr1mDNmjUYO3ZsviEMAE+fPsX48ePx+eefv/K5UtQQbtiwIb766iuN5eXfCjCESbT79++jXr16kCQJDx48ED3OGzl79iwkSYKJiclbs48zlQ0MYRKqpEO4cePGWus//PDDIn3IaebMmWjZsmWB20tTCOf3Lm1+Cgrhl3dXeJ0Qnjx5MqZNm6ax7sCBAwWGcJ6zZ8+iUaNGWLhwYYHXKWoIP3z4sNDrAAxh0g8DBw7EV199JXqMEvHOO+/AyclJ9BhEGhjCJFRJhvDjx49RpUoVjQ8znT9/HpUrV8aTJ080rrtgwQLMnz8f9+/fB/D813d2dnYF3v/bEMJPnz6FJEmIiIiAWq1GYGAgbt++rXGdM2fOoGrVqrhw4QLS0tKQmZmJ6OhoDBgwAGlpaRrXLSiEXz703OuE8Lp169C+fXuNfW3zC+HMzExs3LgR0dHR8roNGzagdu3aBf75f/vtN6xbtw7As90v/P39ta7TuHFjbNmyRb6sUqng4OCAo0ePalyPIUz6gCFMpFsMYRKqKCHcrl07VK9eHTVq1NBYPD09ta67YsUK1K9fH/Xr18cXX3yB2rVrY82aNVrXCw8Ph5WVFapUqYI6deqgXr16sLOzK/RXdkuWLMGYMWNe/w+Zj48++qhIvx48ePAgqlWrhmrVquHdd9/Fe++9h2rVqhX4g1GtVmPQoEGoXr06ateujcaNG+PkyZNa1xkzZgxq1qyJKlWq4N1330WNGjUwduxYraNGdO7cGYcPH9ZY9+eff8LW1lZj3d27d9GgQQMAQEBAAH777TcAwJ49e2BiYqJx3dzcXEyaNAmfffYZGjZsiIYNG6JOnTowMjLSuF52djbs7OzwxRdfoGHDhvjmm2/w008/FfrBxjVr1qB69eqoV68eatWqhUWLFmldx8fHB1999RU++eQTfPzxx/j4449hYGCg9VuDP/74A9OnTy/wsYiUwBAm0i2GMAlVlBDWJZVKhYyMjCKdtjQrK6vE9m3L77i1+ii/v5eCTjySlZUlb8/Ozpa/zltPRK+PIUykWwxhEkp0CBMR6TOGMJFuMYRJKIYwEVHBGMJEusUQJqEYwkREBWMIE+kWQ5iEYggTERWMIUykWwxhEsrY2BgNGzbE999/z4ULFy5cXlqqVauGypUrC5+jJJZy5cqhZs2awufgwuXFhSFMQsXHx+Pff//lwoULFy75LMbGxvj888+Fz1ESS6VKlTBixAjhc3Dh8uLCECYiItJT3DWCSLcYwkRERHrKwMAANWvWFD1GiahQoQKGDRsmegwiDQxhIiIiPdW+fftSFcLW1taixyDSwBAmIiLSU9w1gki3GMJERER6iiFMpFsMYSIiIj3FECbSLYYwERGRnmIIE+kWQ5iIiEhPMYSJdIshTEREpKcYwkS6xRAmIiLSUwxhIt1iCBMREekphjCRbjGEiYiI9BRDmEi3GMJERER6iiFMpFsMYSIiIj3FECbSLYYwERGRnmIIE+kWQ5iIiEhPMYSJdIshTEREpKcYwWABRgAAIABJREFUwkS6xRAmIiLSUwxhIt1iCBMREekphjCRbjGEiYiI9BRDmEi3GMJERER6iiFMpFsMYSIiIj3FECbSLYYwERGRnmIIE+kWQ5iIiEhPMYSJdIshTEREpKcYwkS6xRAmIiLSUwxhIt1iCBMREekphjCRbjGEiYiI9BRDmEi3GMJERER6iiFMpFsMYSIiIj3FECbSLYYwERGRnmIIE+kWQ5iIiEhPMYSJdIshTEREpKcYwkS6xRAmIiLSUwxhIt0qNSE8YsQISJKEevXqFbg0aNAApqamMDc358KlVC6dOnVC/fr1X/k6OHnypOiXLBEVAUOYSLdKTQhXqVIFkiThvffeK3CpWrUqfvjhB/z8889cuJTKpUmTJnj//fcLfA3kvU4GDBgg+iWrqKysLGzfvh3bt2+Ht7c37t27p7E9LCxM3r59+3bs2LED2dnZgqYleo4hXHwnTpyQX9NnzpzR2Pb06VON1/z27dsRERGh2GykP0pNCDdu3BgVK1YUPQaRXrtz5w4kSUK/fv1Ej6Ko2NhYtGnTBv/88w/8/PxgYmKC4OBgebu7uzvmzZsHHx8f+Pj4YPfu3Qxh0gsM4eJr3749/vnnH+zfvx/29vZYuHChvC0sLAw9evSQX/M+Pj6IjIxUbDbSHwxhojKkLIfwi3/mv/76C15eXvJld3d3XLhwQcBkRIVjCBdfhw4d5K9TU1PRrVs3+XJYWBjs7e0Vm4X0F0OYqAwpyyHcpUsX3Lx5E5cvX4a5ubnGftLu7u74+++/ERQUhKCgIDx48EDgtETPMYSLr3379rh58yauXbsGDw8P2NraytvCwsJgYWEhv+avXbum2FykXxjCRGVIWQ7hpk2bYsaMGXB3d0dAQIDGdnd3d9jY2MDNzQ1ubm44dOiQoEmJNDGEi69t27aYOXMm5syZg7/++ktjd6ewsDC0bt1afs0vW7ZMsblIvzCEicqQshzChf2ZuWsE6SuGcPG9uGvEy7hrBOVhCBOVIQzh/DGESV8xhIuPIUxFwRAmKkMYwvlzd3eHk5MTvLy84OXlhQ0bNiArK0vBCYnyxxAuvleFcJcuXeTXvJeXF27fvq3YbKQ/Sk0I//bbb3jvvfdEj0Gk16KjoyFJEiZMmCB6FEXl5OQU+mGYyMhIHDp0SF4OHz6MnJwcBSckyh9DuPhePETiyzIzMzVe84cOHUJUVJRis5H+KDUhbGVlhQYNGogeg0ivJSQkQJIkrFy5UvQoRFQEDGEi3WIIE5UhDGGitwtDmEi3GMJEZQhDmOjtwhAm0i2GMFEZwhB+7sGDB1i7di0WL16MU6dOiR6HKF8M4ZKTnJyMzZs3Y8GCBfD19eUHYgkAQ5ioTGEIP7Nw4UJUqlQJkiShfPnykCQJbdq0QUJCgujRiDQwhEvGvn37UK1aNY3XfKNGjRASEiJkHtIfDGGiMoQh/OwHoiRJGDJkCB4/fozs7Gxs3boV77//PoyMjESPR6SBIfzm7t27h//85z9o1aoVbty4AbVaDX9/fzRo0ACfffYZ0tPTFZ+J9AdDuITFx8fj+PHjOHnyZIFLcHAw7t69y4WL4svFixchSRImT56s08e5detWoa+BkydPIiwsTMhr1MjICF9//TVUKpXG+j///BOSJAmbiyg/DOE35+zsjHfeeQexsbEa68+dOwdJkrB582bFZyL9wRAuYZIkceHCpYhLYGBgsV9rycnJaNiwIWrWrPlaS8WKFfHuu+9qra9evTokSUK1atVQs2ZN/O9//wPw7HijjRs3xqpVq/D06VN88cUXr/2YBS3vvvuu/HcxcODAkvo2RKUIQ1jT4MGDi/U6q1ChQr7bJEnC+++/j5o1a6J27drysYdHjhyJUaNGAXjWFyX1ms97zLyFxCs1/wr6EsLly5dHhQoV4OjoWOCyePFi7NmzhwsXxZf169dDkiR07txZp4/z999/F/oaaNWqFSRJwo4dO97o9ZacnIzY2NjXWoyMjFC3bl08fPhQY72joyPKlSuHy5cvIzY2FqmpqfLjpKSkIDc3t9iPWdhy+/ZthIaGyvdP9CKGsKaMjIzXfo1NnToVFStWlF/becv27dshSRK8vLwQGxuL+Ph4+XEyMzORmZlZ7McsbImMjERoaCiSkpLe6O+CSgZDuIRVrlwZn3/+uegxiPKlL/sIz5gxo0RCuDgCAgJQvnx5dO3aFaGhoYiLi8Mff/yBSpUq8V1Z0jsM4TcXHR2N6tWr47vvvsPp06eRlJSEXbt24dNPP0XTpk2RnZ2t+EykPxjCJYwhTPqMIfzM5s2b8cEHH2j8irJPnz780AzpHYZwyQgMDET9+vU1XvM///wzHjx4IGQe0h8M4RLGECZ9xhB+LikpCR07doQkSTyEEukthnDJycrKgqenp/w9UK1WC5uF9AdDuIQxhEmfMYQ1TZs2Df9n777DorjXNo4PKlhiwygYW9QoyTGxx45dARsiSLNhxRIrghrFghp7b1ExUbAFEBXFFsWCvStiiw1FUVEU6XXv94+8bFzZXdps5f5c11xHdvjNPnCy8HWdnS1ZsqRGZyBShiEsruvXr0MQBBw+fFijc5D2YAiLjCFM2owhLIshTNqOISwuhjB9iSEsMoYwaTOGsCyGMGk7hrC4GML0JYawyEqUKKEVcxDJoy0hPHfuXAiCgMDAQI3OwRAmbccQFhdDmL7EEBZZzZo10aNHD02PQSSXtoTw/v37IQiC9OL1msIQJm3HEBYXQ5i+xBAWWb169dCvXz9Nj0Ekl7aEcHBwMEOYKBcYwuJiCNOXGMIiYwiTNmMIy2IIk7ZjCIuLIUxfYgiLjCFM2owhLIshTNqOISwuhjB9iSEsMoYwaTOGsCyGMGk7hrC4GML0JYawyBjCpM0YwrIYwqTtGMLiYgjTlxjCImMIkzZjCMtiCJO2YwiLiyFMX2IIi4whTNqMISxryJAhMDQ01OgMRMowhMV18eJFCIKAgIAAjc5B2oMhLDKGMGkzhrCsoUOHMoRJqzGExZUVwpp+V0vSHgxhkTGESZsxhGXx1AjSdgxhcfHUCPoSQ1hkDGHSZgxhWQxh0nYMYXExhOlLDGGRMYRJmzGEZTGESdsxhMXFEKYvMYRFxhAmbcYQlsUQJm3HEBYXQ5i+xBAWGUOYtBlDWBZDmLQdQ1hcDGH6EkNYZAxh0mYMYVkMYdJ2DGFxMYTpSwxhkTGESVNiY2Px6NEjXL9+HRKJRO7nZIWwp6cnwsLCFG6pqalK7+vZs2dK19+5cweZmZkK12eFcEBAgMJjhIaG4tGjR4iPjy/Q90UZNzc3FC9eXGXHJ1IkLS0NkZGRuHbtGuLi4mT2ZWZmIjw8HGFhYejZsydq1qwp9zGSlJSk9D7i4uKUPk7DwsJw7969HGd99epVjsd58eJFjscxNDTEyJEjFR7j5s2buHz5MqKjo3M8Vn5lhfChQ4dUdh+kWxjCImMIkzqlpaXBz88PHTp0QLly5WBoaAhBEBT+cssK4WrVqqFhw4Zyt0aNGiE4OFjp/bZr107h+qxjXL16VeF6Pz8/CIIAMzMzhccQBAGCIKBs2bLo1asXgoODlcZ1frRv3x4GBgaiHpNImXv37mH8+PH4+uuvUaNGDQiCgI0bN8p8zvXr19G4cWM0bNgQxsbGKF68uNzHiJ+fn9L7WrdundLHacOGDdG0aVNEREQoPU6/fv1yPE6vXr2UHiM6OhoGBgYwNTXN8TFfsWJF/PTTT1i7di1iY2Nz943NpYCAAAiCgEWLFol6XNJdDGGRMYRJXS5evIgqVaqgc+fOCAgIQHp6eo5rdPHUiKSkJGzbtg2tWrVC7dq1ER4eLtocbdq0gSDozY9B0mIpKSlwcHBA1apVMWvWLERGRuZqXWE9NeLMmTPo168fjI2NsWnTJtFm2LlzJwRBwNy5c0U7Juk2vfkNwBCmwuTs2bMwMTHBkSNH8rROF0P4c7t370blypVx48YNUeZgCJM6JCcnw8rKCg4ODkhLS8vT2sIawlmePHmCWrVqYeXKlaLMwBCmL+nNbwCGMBUWN27cgImJCU6cOJHntboewgCwb98+mJqa5urcxpwwhEkdunXrhv79+yMjIyPPawt7CANAZGQkzMzMsHbt2gLPwBCmL+nNbwCGMBUWdnZ2WLNmTb7W6kMIA8CiRYswcODAAs/BECZVCw0NhZmZWb7Pb2cI/+vBgweoVKlSji8QzAlDmL6kN78BGMJUGERGRqJChQrZXmWeW/oSwh8+fICxsTFev35doDkYwqRqDg4OWL16db7XM4T/0717d3h7exdoBoYwfUlvfgMwhKkwmD17NsaOHZvv9foSwgAwatQozJs3r0BzMIRJld6+fYvy5cvj06dP+T4GQ/g/f//9Nxo1alSgGRjC9CW9+Q3AEKbCwNHRETt37sz3en0KYV9f3xwfaw8fPoSvr6/CrWLFigxhUpkLFy6gefPmBToGQ/g/CQkJOV73Ozk5Gdu3b1f4mB8wYABDmGTozW8AhjAVBt27d0dQUFC+1+tTCPv4+EAQBBgZGSncsq5LmtNGpArHjh1Dp06dCnQMhrCsrMesose8gYFBrh7zrq6uIn1VpOv05jcAQ5gKAwcHBz4j/P98fX3h6OiI9PR0hdvly5exZs0ahduiRYsK9P0kUub8+fN8RvgzBQ3hxMREGBoaKn3Mx8TEYN26dUof956eniJ+VaTrGMIiYwiTKvEc4f+IcY4wkSrxHGFZ2nCOMNGXGMIiYwiTKkVGRsLY2LjQXzUiJiYG5cuXx5s3b0SejEhcDg4OWLVqVb7XM4T/061btwJfNYLoSwxhkTGESdX69u2b71+s+hLCCxYsEOU6wkSqdvbsWdSpUydfb6YBMISz3L9/HyYmJkhOThZ5KirsGMIiYwiTqt26dQsmJiY4fvx4ntfqQwjv3bsXpqamuH//vgomIxJfz5494ezszHeWy2cIv3jxAnXq1MH69etVMBUVdgxhkTGESR3Onz8PExMTHD16NE/rdD2Ed+/ejcqVK+PGjRsqmoxIfCkpKejWrZv0xZ15UdhD+OnTp6hVqxZWrlypoqmosGMIi4whTOpy4cIFfPPNN7C0tMSBAwdy9RauuhjCqamp2LlzJ8zNzVGzZk3cuXNHDRMSiSslJQV9+/ZF9erVMX/+fLx9+zZX6wprCF+6dAmDBg2CsbGxxn9ekX5jCIuMIUzqlJqaih07dqB169aoVKkSKlWqBAMDA0RERMj9/KwQ/vnnn+Hk5KRwO3/+vNL7dXV1Vbre2dlZ6akLe/bsgSAIsLKyUngMQRBQtGhRVKhQAV27dsW+ffvyfZ4lkbYICwvDqFGjUKFCBXz//fcQBAF79+6V+ZwHDx6gX79+cHJyQs2aNVGmTBm5j5ETJ04ova+AgAClj1MnJycMGDAgx7cq9/T0zPE4bm5uSo/x8eNHFClSBD/++KPCY9SuXRuCIKB69eqoW7culi9fjg8fPuTuG0uUTwxhkTGESVNev36NK1euYOvWrUhMTJT7OVkhPHz4cPj5+cnd/P39c7waw5EjRxSuzzqGsktGHThwAIIgYMmSJQqPsXbtWpw/fx7v3r0r0PeFSBslJibi4cOH2LFjBx4/fiyzLy4uDgEBAfDz80Pbtm1RpUoVuY+RyMhIpffx6NEjpY9TPz8/BAYGIiUlRelxzp49m+NxQkJClB4jPT0dxYoVg52dncJjbN++HTt37kRERAQkEknuvpFEBcQQFhlDmLSZLp4aQVSYFdZTI4jUhSEsMoYwaTOGMJFuYQgTqRZDWGQMYdJmDGEi3cIQJlIthrDIGMKkzRjCRLqFIUykWgxhkTGESZsxhIl0C0OYSLUYwiJjCJM2YwgT6RaGMJFq6U0I9+zZExUrVtT0GKhatSo6d+6s6TGI5MoK4d9++02jc/j5+UEQBFy7dk2jcxBpu65du6Jy5cqaHkMURYsWxciRIzU9BpEMvQlhS0tLVKhQQdNjoHLlymjXrp2mxyCSKyuE58yZo9E5du7cCUEQcOXKFY3OQaTtOnToABMTE02PIYqiRYti6NChmh6DSIbehDBPjSDKGU+NINItPDWCSLUYwiJjCJM2YwgT6RaGMJFqMYRFxhAmbcYQJtItDGEi1WIIi4whTNqMIUykWxjCRKrFEBYZQ5i0GUOYSLcwhIlUiyEsMoYwaTOGMJFuYQgTqRZDWGQMYdJmDGEi3cIQJlItnQ/h2NhY/P777xAEAYIgYNOmTYiLi1P7HBEREVi0aJF0jsDAQGRkZKh9DiJF7t27hxkzZkAQBDRt2hRHjx6FRCJR+xynTp1C7969IQgCRo0axRgmkiM+Ph6bNm2S/k7ZsmUL4uPjNT1WvoSHh2P27NkQBAHVq1fH33//remRiKR0OoRPnjyJSpUqwcDAAHXr1kXdunVhYGCAypUrIzQ0VG1zrFu3DkZGRjAyMsKPP/6IqlWrQhAENGnSBJGRkWqbg0iRGTNmoEiRIihZsiTq168PExMTCIKALl264OPHj2qZITExEdbW1hAEAcbGxmjYsCFKly4NAwMDjBs3DpmZmWqZg0jbXb16FVWrVoWBgQHMzMzw3XffQRAEVKlSBRcvXtT0eLkmkUgwdepUGBgYoFSpUmjQoAEqVaoEQRBgYWGBT58+aXpEIu0N4YkTJyrd//jxY3z11Vdo1qwZHj58KL397t27aNy4McqUKYOnT5/KrJFIJFi+fDmGDRsGV1dXzJw5E6mpqQWac9++fRAEAf369cP79++ltx89ehSVKlXCTz/9hJSUFJk1vr6+cHBwgIODA+zs7GBtbV2gGajwkkgkWLp0Kezt7TFkyBAMGDAAERERMp+zevVqCIKASZMmSZ9Rkkgk2LVrF0qVKoUuXbrIPfalS5cwaNAghfc7a9Ys+Pn55XpWJycnGBkZwdvbW/qvJUlJSZg1axYEQYCnp6fcdVu3bsXChQuz3Z6UlISpU6di6NChcHBwwN69e3M9C5G2io6ORsWKFVGvXj3cuXNHentYWBjq16+PcuXK4cWLF9nWJScnw8XFBTdv3sy279ixY/Dw8MCUKVPwyy+/IDY2VqVfQ5Zly5ZBEAR4eHggISEBAJCZmYnt27ejZMmSsLKykrvu3r176N27t9x9kyZNwocPHwAAw4cPV83gVKhobQgrehBkGTlyJMqWLYvo6Ohs+968eYNy5cphxIgRMrefPn0abm5u0n8OPnr0qPQBlV8NGjRAs2bN5D6bdfLkSQiCgD///FPh+s2bN2PNmjUFmoEKr8ePH8PKykrhKQ5paWmoWLEibGxs5O7ftm0bBEHAiRMnZG4/evQoLCws0LJly2xrMjIyMGzYMHTq1Anr1q3L1Zz37t2DIAhYvHix3P0jR45EiRIlEBMTI3P74sWL0aVLF4wZMybbmri4OOlfgtPS0tCsWbNczUKkzWbPng1DQ0M8efIk275Xr16hdOnS+OWXX2Ru//TpE6ysrNC6dWu5/xp64MAB6c+I27dvq+VtjlNTU2FsbAx7e3u5+729vSEIAs6cOSNz+6VLl9CuXTs0aNBA7rrPf95ZWFiIOzQVSjobwv/73//g6OiI4cOHo379+ujSpYt0c3d3R//+/VGnTh2ZNevWrUNwcDD+/vtvBAUFFfhvxR8/foQgCFi1ahVatWqFli1bSmfo2rUrvL29UatWLQwcOFDu+k+fPsHc3LzAz0pT4RUeHo6xY8cq3H/79m0IgoBdu3ahXr16aNeuncx/o/v27UOJEiUwY8YMmXW7d+9GYmIizM3Nsx0zJiYGe/fuxe7du3Mdwhs3boQgCDh69Chq1Kgh83jt1q2b9F9WDh06JF2TmZmJrVu34tatW3JD+HOvX79W+OwSkS7p2LEj2rdvDxcXFzRo0EDmsTJ8+HDY29ujXr16Mmvu37+Pc+fOYfr06TmeFnj79m2MHDlSlV8CAOD69esQBAH+/v744Ycf0L59+2y/H42MjDBnzhyZdfv27cP79+/l/uzJyMhA3759pR8zhEkMOhvCbm5u2LNnj/SFBJ9vRkZG2L9/P8aPHy+zZs2aNejYsSO8vb3h4+MDOzs7uc8o51ZaWhp69eqF+/fvy53jhx9+wG+//YbNmzfLXT9t2jQEBgbm+/6JwsPDMWnSJIX7Y2JiYGlpiXPnzsn9b7RLly4YP3489u/fL3e9vF9GWfISwufPn0e/fv0wZMgQuXMsWrQIPXv2xKNHj7KtvX37ttIQzsjIgI2NDf75559czUKkzbJ+Z8h7nBgYGCAgIACTJ0+Wu1ZRCMfExMDJyQk9e/ZEtWrV8OrVK1V/GYiOjoalpSVCQkLkfi0//fQTfvnlFwQHB8tdL+9nz+PHj2X+4s8QJjFoLITfvn2Lw4cPS7cjR47IXGUhpxDOUr58+WwPMENDQ7mfu2bNGpkH3YYNG2SegSoIeQ90MzMzhZ//7NkzdOnSRSOv2ifdcuvWLZnHyo0bN6T7wsPDFf5S/FxYWJjc/0Y7duyodJ1YIZxl6tSpcudQdMoEkHMIz58/H1u3bs3THETarnTp0nIfK8rk5hlhf39/zJs3T8xRlbp06ZLcr+PLZ7W/JO9nz6tXr1CnTh3s2rULhw4dQuPGjXHs2DFVjU6FhMZC+OrVqxg7dqx0Gz9+PJKSkqT7VRXCx48fl368adMmhc+E5VVeQ9je3h6XLl0S5b5Jv23cuFHmsfL5NYDDw8Ph5uaW4zH0NYRDQ0PRv39//oWS9I6qQjg+Pl7m9AJVEzOEAeD58+fw9/fHjh07UL9+fRw4cCDfswUHB2P48OEYMmQIBg8enO01CmlpafDy8kJaWlqejpuRkYHAwEBMmDAB48aNy3a+d3p6OjZv3oxZs2bJ7YBnz55h7ty5WLJkidyr+iQnJ2c7pYTyT2dPjciSlxD29fXF8uXLAfz7qvdx48bh1KlTosyblxAODQ2Fk5OTKPdLhduzZ89gaWmZ46XH9DGEs84jVNfl34jUScwQ3r17tzTmtm/fjgULFqhkZnnEDuHPFeTUiLCwMHTu3BkJCQmQSCTZrvufkJCA3r17w9TUFImJiXk6dmRkJLZv3474+HhERESgffv2MvuHDx+OvXv3IiIiAm5ubggKCpLue/78Ofr06YO7d+/i2rVrsLGxkbnMXGxsLCwtLfHNN9/k/YsmubQ2hIcMGQJHR0fptmHDBrmfl5cQTk1NxeTJk9G3b1/07dsXHh4eor3pRV5CeOXKldku7UaUXz4+Pujbty+cnZ3h7Ows99XmeQ3hqVOnwt7eHh06dIC9vb3Ms9DPnj2Dvb09evTogW7dusHe3l7mEobK5CWEU1JS4OTkBBsbG3Tt2hX29vYICQmR7t+6dSssLCykj2cHBwfpJZqIdF1eQvjMmTOwt7eHhYUFrK2t4ejoKPNYOHLkCCZMmICJEyfC3d09z89wFkReQ3jRokUyP3uURbuiSy7mRkhICObOnatw/65du6RXz8lrCH8uISEhWwj36tVL+ueXL1/KXMXD398fPj4+0o/nzJmD8+fPSz/29vZGaGhorv6iQLmjtSGcW3kJYVXK66kRROqU32eExZafZ4SJCqP8PCOsjfL7jLCqhYSEyL0++ZcKGsLDhw+XCVkA6Nmzp/TPUVFRcHFxkX68e/dubN++Xfrx3Llz5T7LzxAWj+49qr6gzSGsL+8PT7rvzp07cv8b7dSpk1rnUBTCS5YsUescRNquTJky2R4nBgYGmh4rzy5fvqy1IZybnzsFCWFfX194eXllu50hrF10PoTHjRuHhg0bokKFCjAyMkLDhg0VvhuWKllaWqJhw4YoUaKE9O1j+SwXaYuEhASYm5vjxx9/hCAIqFatGho1agRfX1+1znHhwgX8/PPPqFWrlvRfTX7++WeEhYWpdQ4ibTdq1Cg0bNgQxsbGKF68OBo2bKiT70IaGxuLNm3aoGHDhjAwMICpqSkaNmyIZcuWaXQuVYfwgwcP0L17d7mnXzKEtYvOh3CWYcOGoVatWpoeA/Xq1UO/fv00PQaRXDExMRAEQeacX00IDg6GIAi4deuWRucg0nYDBgzQm39dNDIywsyZMzU9BoB/X7Tu4eGR4+cpCuGoqCiFa5KTk9GxY0c8f/5c7v5u3bpJz9O+fPmyzBzHjx+XOWXD1dUVDx48yHYMhrB4GMIiYwiTNmMIE+kWhrBqJCYmYuDAgXBwcJC+0Pjdu3fS/Vu3boWDgwNMTU1ha2uLiRMnSve9ePECFStWRHJystxjz5s3D9999530hbxOTk5IT0+X7g8JCUGvXr0wePBgDBo0CHFxcdJ9mZmZmDJlChwdHdG3b99sb8i1fv16ODg44Ouvv4aDgwOmT58u1rek0GIIi4whTNqMIUykWxjC+kvZZS8zMzN5fXQ1YQiLjCFM2owhTKRbGMJEqsUQFhlDmLQZQ5hItzCEiVSLISwyhjBpM4YwkW5hCBOpFkNYZAxh0mYMYSLdwhAmUi2GsMgYwqTNGMJEuoUhTKRaDGGRMYRJmzGEiXQLQ5hItRjCImMIkzZjCBPpFoawaly6dEnmHdwU6d27NxISEmRui4mJwYQJE6Qf+/j44NChQ9KP37x5AwcHB7i4uGDQoEHZrvU7ePBg6XWFb9++jQULFuR67uTkZPTp0weRkZHZ9sXHx8PR0RFWVlYwNzeHvb09Dh48KN2/du1a2NjYwMXFBba2tti/f7/M+mnTpiEoKCjXs+gLhrDIGMKkzRjCRLqFIawaISEhWLNmTY6f9/LlS7m3Ozk54ebNm4iPj0eLFi2QlJQk3Tdjxgz4+/srPObKlSuxceNGAECPHj1w//79XM+9Zs0aeHt7K/2ckydPwsvLK9vtXl5e0rdrzszMRMuWLWX2f/r0Ce3atUNqamqu59EHDGGRMYRJla5evYpNmzble1uxYgUEQUD//v0LdJyCbmPHjoUgCJg5c6ZG5+DGTdu3Fi1awNTUVONziLFOVG0FAAAgAElEQVQVK1YMPXr0KNAxfH19Zd6lLb9yCuEDBw5g6tSp+PXXX+W+g9yTJ0/Qs2dPzJ49G7t27ZLZ5+7ujuvXrys8dmpqKtq0aYOAgACMGzcuT3Pb2NjIfTb4c7kJYYlEgtatW2f7HEdHRzx8+DBPM+k6hrDIGMKkSv7+/hg1alS+tyFDhkAQBLRr165Axyno1q1bNwiCAHt7e43OwY2btm9mZmYoX768xucQYytSpAiaNm1aoGNMmjRJ4Vsb50VOIfz+/Xs8fvwY3bp1Q3R0tNzPcXd3h7m5ebZ3gHN3d8ft27eV3n9gYCAqVaqE9+/f52luKysrxMTEKP0cZSHcpUsXODk5oVevXli/fn22z3FxcSl0/1LHEBYZQ5i0GU+NINItPDVCNXJ7aoS9vb3CED5x4gTmzJmT7XZ3d3fcuXNH6XETExNhaWmZu2E/Y2VlhQ8fPij9nNw8I6zI4MGDC93PZYawyBjCpM0YwkS6hSGsGmKFsLzgdHd3R1hYmNLjJiYmwsrKKnfDfqagzwjnFMIuLi45Rry+YQiLjCFM2owhTKRbGMKqocoQ9vLygo+Pj9Lj5jeEbWxsFL6AL0tBQtje3h6PHj3K81y6jCEsMoYwaTOGMJFuYQirxs2bN9GrVy84OjpKt6dPn0r3b968GX379oWlpSVsbW0xevTobMe4deuW3EuwJSYmYuLEiXB0dISzszM8PDyyfU5qamq2y6rlxvz587F27Vqln3P9+nVs2bIl2+2+vr4IDw9XuC4mJgb16tUT5cWIuoQhLDKGMGkzhjCRbmEI0+dSUlLg6uqqkmdtZ8yYgTNnzoh+XG3HEBYZQ5i0GUOYSLcwhIlUiyEsMoYwaTOGMJFuYQgTqRZDWGQMYdJmDGEi3cIQJlIthrDIGMKkzRjCRLqFIUykWgxhkTGESZsxhIl0C0OYSLUYwiJjCJM2YwgT6RaGsOplZmZqZG1+SCQSZGZmSrcv395ZjOMXNgxhkTGESZsxhIl0C0NYdTw8PDBw4EAMHToUAwYMQFpaWq7XLly4EP3798eIESPQu3dvxMfH53rtrVu30LdvXwwePBgTJkxAcnJyrtdaW1vDwcFBuq1atSrXa3MyY8YM2NjYYMWKFaIdUxcwhEXGECZtxhAm0i0MYdWJjY2V/nn06NG4efNmvtbOnz8fhw4dyvVaKysrJCQkAABOnToFT0/PXK+1sbHJ9efmVWpqKpKTk9GsWTOV3Yc2YgiLjCFM2owhTKRbGMKqFx8fj65du8o8q3v58mVp3D558gTbtm2TuzYtLQ3du3dHVFSU9LZ//vkHO3fuBABER0dneye4nj17Sv8cFRUFFxeXXM/as2dPuLi4wMnJCf3795d5u+W4uDi4uLhgwIABGDlyJMaOHYsrV65I9x88eBBDhw6Fo6Mjxo8fD09PT5mv+fTp0+jcuTP8/f1zPY8+YAiLjCFM2owhTKRbGMKqN3ToUJw/f17mtvj4eLRs2RIhISFo1qwZ7ty5I3fttGnTsG/fPpnb0tLS0KVLFxw8eBAdOnTA6dOnZfYXJIQPHDiAjx8/AgAePXqEAQMGyBzL2dkZkZGR6Nu3L96/f482bdpI98+bNw8nTpzA7NmzceTIEaxevRrr16+X7m/WrBk6d+4MOzu7PJ0mouu0IoSfP3+Or776CkWKFMn3ZmBgAEEQCnQMMTZBEGBgYFCgY5QsWVIlb59IxBAm0i0MYVkWFhYyz74W1LZt2zB37ly5+549e4bSpUsjMDBQ7v6jR49i9OjRcve9e/cOVapUwZo1a7LtK0gIf6lPnz4yx3J2dkZmZibatWsHANL/Bf4L4U2bNsHX1xfBwcFYvHhxvu9bX2hFCIuBzwgT5YwhTKRbGMKy6tati3v37okyz/3799GtWzdkZGTI3e/j44NmzZrBxcUl29UUoqKi0KFDByQmJspde+zYMTRr1kzu8Xv06CH988uXLzFkyJB8fw3du3eXmYkhnHcMYZExhEmbMYSJdAtDWJZYIZyUlITWrVvj1q1b+PDhAz58+ID09HTp/tu3b6Njx45ITk7GxIkTZU4hyMjIgKWlJU6fPi1d+/mpBC9evEDr1q3x8eNHLFmyBDNmzJC57379+uHcuXNITk7G7NmzsWvXLum+mzdvYuvWrQrnnjRpEiIjIwH8e06vvb29dB9DOH8YwiJjCJM2YwgT6RaGsCyxQvjOnTsYMWKEzBYWFibd7+fnJ30hWnp6OlavXi3dFxkZmW1taGiodP+RI0dw9+5dAP9el3fFihUyzyjHx8dj3rx5cHV1xcGDB2XmCgwMxNChQxXO/eLFC7i5uWHKlCmYNm2aNIqBf18st3HjRkgkEixduhQAsGzZMun+gwcP4v79+zh9+jQuX76MO3fu4MiRI3n6vukjhrDIGMKkzRjCRLqFISxLzFMjtNG1a9ewYcMGTY9RqDCERcYQJm3GECbSLQxhWfoewqR+DGGRMYRJmzGEiXQLQ1gWQ5jExhAWGUOYtBlDmEi3MIRlMYRJbAxhkSkL4dTU1GyXYJHn81eu5vZz4uLi8PHjR8TGxiq8j8zMTIWXesmN3MyVn7USiQSZmZn5PjblHkOYSLcwhGUxhElsDGGRKQthd3d3PH78WOHazMxMTJ06FYMHD1Z6HxKJBFZWVoiLi5Pe1rhxY4wYMQLDhg2DhYVFtuCdMmUKBg4ciLFjx6J3795ISkrK9dckkUgwf/58mQt3fz7z9OnT0a9fPzg6OmZ7hx3g31eq1q5dW+6xt2/fjmHDhmH48OEYNmwYkpOTcz0X5R1DmEi3MIRlMYRJbAxhkSkL4cmTJyt9x7jhw4djwoQJGDRokNL78Pf3h5eXl8xtHTp0kP7Z09MzW5B+HsYeHh7Z3k5SGTc3N0ycOBG9e/fOtm/v3r3Sd86RSCSwt7fHmzdvpPt37doFOzs7NGvWLNva6OhoDBw4UPqxr68vfHx8cj0X5R1DmEi3MIRlMYRJbAxhkRUkhG/duoWnT58qDeHk5GS0bt0aCQkJMrdnhbBEIoGLi4vM9RA/l5CQAAsLC3z69CmnL0VmrpiYGLkh/PvvvyM4OFj6sZubm8x7soeHhyM9PR3m5ubZ1kZERGDEiBHSj/fv38/LxqgYQ5hItzCEZTGESWwMYZEVJIQB5BjCixcvxubNm7Pd3qBBAzg7O8Pe3h6NGjXCw4cP5a4fPnw4zp49q3QGefIbwlnkhXBGRgZ69eqFzZs3Izg4GI0bN8a6devyPBvlHkOYSLcwhGUxhElsDGGRqTKEo6Oj0bp1a7kvPGvdurX0z9evX5d7Pu/27dsxe/ZspfeviCpCGPj3RXQBAQHYvHkzfv31V615Rlgikch9YWF8fLzSFzympKTk6gWREolE4fvbqxJDmEi3MIRlMYRJbAxhkakyhH/55RccOnRI7r7PQzgjIwM//fSTzP6HDx/Cysoq31d+UBTCGzduxIEDB6QfT5w4UfrWkp9TFMKfW7VqFf766698zSe2Bw8e4Pvvv5d5UWF8fDxq166Np0+fyl1z+PBhfPXVV3jw4IHC4z59+hQ2NjYwMzNDq1atYGZmBg8PD5n3qVclhjCRbmEIy2IIk9gYwiLLKYQvXLiA169f4/Xr14iOjpbZ//btW1y6dAl9+/ZFVFSUTIQ9evQIlpaWCp9tbNmyJd6+fYvXr19j8eLFGDt2rHRfcnIyWrVqhfPnz+Ply5d4+fKlzNUZgoKCsr3f+eeio6Nx9+5dWFpaIioqSub85PDwcDg5OeHly5e4efMmrK2tZY4dGxuLqKgoNG/eHFFRUfj48aN03/Pnz7FkyRKkpqYiISEBnTt3RlRUlMI51OnevXsQBAHu7u7S20aPHg1BEORe+cPHxwempqb46quv5P5FIEv79u2xePFi6bPB7969w+jRo9UWhAxhIt3CEJbFECaxMYRFpiyEg4KCMGHCBOk2ffp06b7MzEy4ubnJ7A8JCZHuv3DhAsLDwxXe78KFC6XrVq1aJfMM46NHj2SOO2HCBNy8eVO6/9ChQzh69KjCY//6668ya798VvrGjRtwc3PD3Llz8eHDB5l9mzZtklm7fv166T6JRAIfHx+4ubnB3d0df//9t8IZ1O3evXuoWLEiTE1Nce7cORw/fhympqb4+uuvs4XwwYMHUbVqVYSHh6Nq1aoKQzguLg7GxsYavWYyQ5hItxS2EE5ISMDr16/x8OFDXLt2DadOncKBAwewc+dO/P7776hUqRJDmETFEBYZ31lOP9y7dw916tTBoUOHULduXXz77bc4duwYatWqlS2E4+Pj8e7dOwBQGsKRkZGoVasWXr9+jXnz5mHs2LFYvXq1zOXmVI0hTKRbtD2E09PT8eHDBzx//hzh4eG4ePEijh07hj179mDr1q1Ys2YNfvvtN0ybNg1FihRBgwYNYGNjg86dO6N58+b44YcfULVqVZQtWxbFihVD2bJlUbVqVfzwww9o3rw5OnfuDBsbGwwcOBBjxoyBp6dnnq6DT5QThrDIGML6ISuEgX/fCGXq1KkAIDeEP5dTCJcqVQqtWrXC6tWrsX37dkydOhU1a9bE+/fvxf8i5GAIE+kWVYRwUlIS3r59i8ePH+PGjRs4c+YMgoODsXv3bmzevBnLli3D7Nmz4ebmhhEjRsDJyQk9evRA27Zt0ahRI3z33XcwMTFByZIlUbx4cVSsWBG1atVCgwYN0KZNG1hZWcHe3h7Dhg3DxIkTMXPmTCxZsgTFihVDnz59cODAAZw6dQrXrl3Dw4cP8fr1ayQkJOTqhcZEYmMIi4whrB8+D+HPFTSEy5Url+0azq6urvD29i7YwLnEECbSLVkhHBsbi8jISNy7dw+XL1/GiRMnsHfvXvj4+GDdunVYuHAhpk+fjnHjxsHFxQW2trbo2rUrWrZsiR9//BHVq1dH+fLlYWhoiNKlS+Obb76BmZkZmjZtio4dO8La2hr9+/fHqFGj4OHhgXnz5mHVqlX4448/4O/vjyNHjuDcuXMICwvDs2fP8P79e6SmpubpaxHjHGEisTGERcYQ1g+qCmF5/43Onj0bCxcuzP+wecAQJlKPlJQUvHv3Dk+fPsXt27dx9uxZHD58GH5+ftiyZQtWrlwJLy8vuLu7Y+TIkejXrx969eqF9u3bo0mTJqhbty4qV66MYsWKwcDAAMbGxvj222/x008/oVWrVrCwsICdnR2GDBmC8ePHY8aMGVi0aBHWr18PX19f7N+/HyEhIbhy5Qru37+Ply9fIi4uTqOvUWAIkzZiCIuMIawfVBXCZmZm2W739PRkCBNpmEQiQXx8PF69eoUHDx7g6tWrOHnyJIKCgrB9+3Zs2LABixcvhqenJyZMmIChQ4eib9++sLS0ROvWrVG/fn3UrFkTFSpUgJGREUqVKgVTU1PUqVMHjRs3Rrt27dCzZ084OzvD1dUVkydPxpw5c7BixQp4e3vjr7/+wqFDhxAaGoqbN2/iyZMniI6OhrOzs1afI5wXDGHSRgxhkTGE9YMqQjgmJgaVKlXKds3g4cOHq+0d9RjCpE/S0tIQExODiIgI3LlzB+fPn8fRo0cREBCAP//8E6tXr8b8+fMxZcoUjB49GgMGDEDv3r3RqVMn/Pzzz/j+++9RpUoVlClTBsWKFUO5cuVQrVo11KtXDy1atECXLl3Qp08fDBo0CGPHjsWvv/6KBQsWYO3atdi2bRsCAwNx/PhxXLp0CXfv3sWLFy/w8eNHUd8sR9tfLJcXDGHSRgxhkTGE9UNeQjg8PBze3t7w9vZG+fLl4eXlBW9vb5nL32Xp3r07unfvjt9//x1btmzBr7/+iq+++kptlwNiCJOmJSYm4s2bN/jnn39w/fp1nD59GgcPHsSuXbuwceNGLF26FLNmzcKkSZMwfPhwODo6olu3bjA3N0fDhg1Ru3ZtVKpUCSVKlECJEiVQqVIl1K5dGw0bNoS5uTm6desGR0dHDB8+HJMmTcKsWbOwdOlSbNq0Cbt27cLBgwdx+vRpXL9+HY8ePcKbN2/kvouktmAIE6kWQ1hkDGH9EBsbK3PN4yxr165FfHy8zG2nTp3C1KlTs20+Pj7Z1icnJ2PXrl3w8PDApEmTsGLFCty/f19lX8eXGMKUVxkZGfj48SNevHiBu3fv4tKlS/j7778RGBiIbdu2Ye3atViwYAF+/fVX/PLLLxg0aBD69OmDLl26oEWLFvjf//6HatWqoVy5cjA0NESZMmVQpUoVfP/992jWrBk6deqE3r17Y8CAARg9ejSmTp2K+fPnY/Xq1fjzzz8REBCAo0eP4sKFC7hz5w4iIiIQExOjtndj1DSGMJFqMYRFxhAmbcYQLhySk5MRHR2NJ0+e4ObNmwgNDcWhQ4fw119/wdvbG8uXL8ecOXMwefJkuLq6wtnZGT169EC7du3QuHFj1KlTB6ampihVqhSMjIzw9ddfo2bNmqhfvz5at24NS0tL2NvbY+jQoZgwYQI8PT2xePFibNiwATt27EBQUBBOnjyJq1ev4sGDB4iKikJ8fDwvj5UPDGEi1WIIi4whTNqMIaydJBIJPn36hJcvX+L+/fu4cuUKQkJCsG/fPvj6+mL9+vVYtGgRZsyYgfHjx2Pw4MGws7ODhYUFWrVqhZ9++gk1atSAsbExDA0N8dVXX6Fy5cqoW7cumjRpgg4dOqBXr17o168fRo4cCXd3d8ydOxcrV67Eli1b4Ofnh8OHD+PcuXO4ffs2nj59infv3iElJUXT35pCjyFMpFoMYZExhEmbMYTFk5qaivfv3+PZs2e4ffs2zp07hyNHjsDf3x9//PEHVq1ahblz58LDwwOjRo1C//79YW1tjQ4dOqBp06YwMzPDN998g9KlS8PQ0BDly5dHjRo18OOPP6Jly5bo2rUrbG1tMXjwYIwbNw7Tp0/HwoULsW7dOvj4+GDfvn04ceIELl++jHv37iEyMhKfPn3S6OWxSHwMYSLVYgiLjCFM2qywh3BCQgKioqLw8OFDXLt2DadOncKBAwewY8cO/P7771iyZAlmzpyJiRMnYtiwYbC3t4eVlRXatGmDBg0aoFatWvj6669hZGSEkiVLwsTEBN999x0aNWqEdu3aoUePHnBycsKIESPg5uaG2bNnY/ny5di8eTN2796N4OBgnDlzBjdv3sTjx4/x9u1bvl0sKcUQJlIthrDIGMKkzXQthNPT0/Hhwwc8f/4c4eHhuHDhAo4dO4Y9e/Zg69atWLNmDX777TdMnToVY8aMwcCBA2FjY4POnTujWbNm+OGHH1C1alWULVsWxYoVQ9myZVG1alX873//Q/PmzdG5c2fY2Nhg4MCB+OWXXzBt2jT89ttvWLNmDbZu3Yo9e/bg77//xsWLFxEeHo7nz5/jw4cPSE9PV9N3igo7hjCRaulNCBcvXhyCoPkvRxAErZiDSB51hHBSUhLevn2LR48e4caNGzhz5gyCg4Oxe/dubNq0CcuWLUO/fv0gCAJsbW3h6OiI7t27o23btmjUqBG+++47mJiYoGTJkihevDgqVqyIWrVqoUGDBmjTpg26desGBwcHDBs2DBMnTsTMmTOxZMkSbNy4ETt37sSBAwdw6tQpXLt2Df/88w9ev36NhIQEvlCLdBJDmEi19KLY4uLipAF64cIFjc1x6dIl6RyfPn3S2BxEisgL4czMTMTGxiIyMhL37t3D5cuXcfz4cezduxc+Pj5Yt24dFi5ciOnTp2Ps2LFwcXGBra0tunbtipYtW6JevXqoXr06ypcvD0NDQ5QuXRrffPMNzMzM8PPPP6Njx46wtrZG//79MWrUKEyZMgUDBgyAIAiYM2cO/P39cfToUZw/fx5hYWF49uwZ3r9/j9TUVA1+p4i0A0OYSLX0IoSXLVsmDVAHBweNzWFnZyedY+XKlRqbg/RfSkoK3r17hydPnuDWrVs4e/YsDh8+DD8/P2zZsgUrVqyAl5cX3N3dMXLkSPTr1w89e/ZEmzZtIAgCTExMULlyZXz11VcwMjJChQoV8O233+Knn35Cq1atYGFhgb59+2LIkCEYP348ZsyYgUWLFmH9+vXYvn079u/fj5CQEFy5cgX379/Hq1evEBcXl+sXaunDi+WI1IEhTKRaOh/C6enpqF69ujRAixUrhsjISLXP8fjxYxQpUkQ6R+3atfnqbRLdsGHDYGRkhFKlSsHU1BR16tRBkyZN0L59e/Ts2RPOzs5wdXXF5MmT4eXlhRUrVsDb2xt//fUXDh06hEOHDkEQBMybNw/R0dFITk7WyNfBECbKHYYwkWrpfAhv374dgiCgZs2aKF68OAwNDTFt2jS1zzFmzBiUKlUKlSpVQpkyZSAIAoKCgtQ+B+m3rl274tChQ/ler2svliMq7BjCRKql8yGc9Qzsl5s6z9GNjIxUOAeRmLp27YrDhw/nez1DmEi3MISJVEunSy0jI0NhgF65ckVtc/j5+TGESS0YwkSFC0OYSLV0vtQkEgkyMjIwePBg1KhRAxkZGRq5TFLWHN9//z0cHR2RkZGh9hlI/zGEiQoXhjCRaul8CGfx9PRE69atNT0GOnfujMmTJ2t6DNJTDGGiwoUhTKRaehPCGRkZSElJ0fQYSElJ4btOkcowhIkKF4YwkWrpTQgTFQYMYaLChSFMpFoMYSIdwhAmKlwYwkSqxRAm0iEMYaLChSFMpFoMYSIdwhAmKlwYwkSqpdMhnJSUhOvXrwMAXr58iaVLl2LevHlYtmwZnj9/rrY5rl27xrdTJrVgCBMVLgxhItXS6RDesGEDduzYgeTkZNja2iIkJASXLl3C3r170aVLF7XN0ahRI3Tu3BmnTp1S231S4cQQJipcGMJEqqXTITxu3DhkZmbin3/+wfTp02X22dvbq20OBwcHREdHY/To0ejTpw/u37+vtvumwoUhTFS4MISJVEunQ9jd3R1RUVF4//49xowZI7OvT58+apvDwcFB+ufw8HD06NEDY8aMwdu3b9U2AxUODGGiwoUhTKRaOh3C165dQ4cOHbBgwQI0a9YMc+bMwfLlyzFlyhQMGzZMbXN8HsLAv2+3fPDgQfz888/w9vZW2xyk/xjCRIULQ5hItXQ6hAEgPj4eZ8+exalTp6Tb5cuXkZaWprYZXr16Jff29PR0PHnyRG1zkP5jCBMVLgxhItXS+RAmKkz27t2LN2/e5Hs9Q5hItzCEiVSLIUxUiDCEiXQLQ5hItfQ2hCdPnqzpEQAAbm5umh6BSIohTKRbGMJEqqW3Iezk5KTpEQAAjo6Omh6BSIohTKRbGMJEqsUQVjGGMGkThjCRbmEIE6mWTodwYmIiYmJi5G62trZqm+PTp08K51DnG3sQ5YQhTKRbGMJEqqXTIbxp0yYMHTpU7jZ27Fi1zeHh4aFwjpUrV6ptDqKcMISJdAtDmEi1dDqEieg/b968QVhYGM6cOYPMzEy5n5MVwtOmTcOVK1cUbklJSUrv68GDB0rXX716Fenp6QrXZ4Xwzp07FR7j8OHDuH37NmJiYgr0fSHSRklJSXj06BFOnTql9LHUrVs31K5dO8fj3bx5U+lxrly5gvfv3ys9RmJiYo7HuHr1ao7X6Y+KipK71tDQEMOGDcOVK1dw9+7dbOseP36MkJAQvHjxAhKJJMevmUgMDGEiHZacnAwfHx+0bNkSFStWRJkyZSAIAh48eCD387NCuFatWmjRooXcrWXLljhy5IjS+7WwsFC4PusY169fV7jez88PgiCgfv36Co8hCAIEQYCxsTG6du2KPXv2KI1rIl1w8+ZNuLq6okKFCjAzM4MgCEofSxUrVkTZsmWVHvPVq1cwNzdXepwWLVpgzZo1So9z4MCBHI/RsmVLXL58WelxZsyYIXetgYEBqlatihYtWqBTp05ITk6WWdekSRMIgoBq1aqhbt26WLp0Kd69e5e7byxRPulVCCclJRXoXbfEEhERgWvXrml6DNJzZ86cgYmJCXr06IGDBw8qfBb4c7p4akRqair++usvdOzYEdWrV8fNmzfVMCGRuJKSkmBtbY2aNWtiwYIFuX5jnMJ6asTly5cxdOhQGBsb5xjwRAWhVyH84sULdOjQQdNjwM/PD7/++qumxyA9dvLkSZiYmODkyZN5WqeLIfy5vXv3wtTUNMdnpIi0SWJiIjp16oSBAwciIyMjT2sLawhnefHiBerWrYsFCxaoaCoq7BjCKsAQJlW6evUqTExMEBoamue1uh7CAHD48GGYmJggLCxMBZMRia9Lly4YMmRIrv7V5kuFPYSBf885rlevHpYvX66CqaiwYwirAEOYVMnGxgYbNmzI11p9CGEAWLZsGZydnUWeikh8p06dwv/+9798v/iLIfyvx48fo2LFikhMTBR5Kirs9CqEX758iU6dOml6DOzZswczZszQ9Bikh54/f44KFSogISEhX+v1JYRjY2NhbGyMV69eiTwZkbjs7Oywbt26fK9nCP/H2tpa4z+7SP/oVQgD/76wRtMyMzNzvLwMUX7MnDkTEyZMyPd6fQlhAPjll18wZ84cEaciEtebN29gbGyM+Pj4fB+DIfyfkJAQ1K9fX8SJiPQwhIn0mYODA3bu3Jnv9foUwr6+vjmeHpGUlIQXL17oxfb06VOl+yMjI3P853defk69zp8/j+bNmxfoGAzh/yQmJqJ48eIiTkSk4yGclJSEjx8/Ztvy+8/G+RUfHy93jpSUFLXOQfqve/fuCAoKyvd6fQphHx8f6TVHFW1GRkbS6xEXhm3KlClyv1cSiQRDhw5FsWLFlH6/uOVtK1euHCpXrqxwf9b/LwXBEJZVtGhRrfiXX9IfOh3Cy5cvR+/evWU2a2trtG3bVq1vsezq6ip3jgYNGsDX11dtc5D+c3R0xI4dO/K9Xt9C2MLCAq9evVK4hYaGwt/fX+c3Pz8/LFu2TOnnfPPNN3Bxccn2fcrMzISLiwsEQYCXl5fS7xe3vG0vXrxQun/PnhKk0VYAACAASURBVD1o0KBBAR4pDOHPJSQk8BlhEp1Oh7AyTk5Omh4B6enpGDBggKbHID0yd+5cjB49Ot/r9SmER4wYgd9++03EqXRb3bp1s4Vweno6nJ2dIQgCVq9erZnBCrF3796hfPny+PjxY76PwRD+z5EjR9CkSRMRJyLS4xAeNGiQpkcAoD1zkH6IioqCsbExYmNj87VeX0I4KzCio6NFnkx3fRnCaWlpsLW1hYGBATZu3Ki5wQq5fv36Fej6twzh/1hYWODPP/8UcSIiHQ/hhw8fIjQ0VGY7c+YMAgMD0b17d7XNcfXq1WxznD59Ghs3bsT48ePVNgcVDk5OTli2bFm+1upLCHt5eWHIkCEiT6XbPg/hlJQU9OzZE0WKFGE4aNjFixdRu3btfL9QkSH8rzt37qBy5cp87Q2JTqdDODAwEF5eXtm2hQsX4vHjx2qbY/Xq1XLnWL58OeLi4tQ2BxUOd+7cgYmJCYKDg/O8Vh9CePfu3ahcuTL++ecfFUymu7JCOCkpCZaWlihatGiBzicn8dja2sLW1jZfl9VkCANPnz5FrVq14O3trYKpqLDT6RAmKqyuXLkCU1PTPF9BQtdDeOvWrahSpQrCw8NVNJnuqlu3Lvr27YtOnTrB0NAQAQEBmh6J/l9qaip69+4NGxubPD+jWdhD+OHDh6hRo4bGf2aR/mIIE+moa9euoUaNGmjfvj38/f1z9U+vuhjCSUlJ+OOPP/Dzzz/DzMwMDx48UMOEuqdu3boQBAFGRkYFusQeqUZaWhoGDBiAypUrY8aMGYiMjMzVusIawqdPn4aDgwMqVKjA03tIpXQ6hLdt24bff/8dERERGp1j3rx5+Ouvv/DhwweNzkGFT0ZGBgIDA9GpUyeUL18epUuXhiAIePr0qdzPzwrhhg0bwsbGRuF25swZpfc7aNAgpev79Omj9FnbgIAACIKAjh07KjxG1jVYy5UrB2traxw9ejTHN4wozIyNjWFoaIjDhw9rehRS4p9//sGkSZNQsWJFfPvttxAEQeljqXr16jA2NlZ6zLdv38Le3l7pcWxsbODj46P0OCEhITkeo0+fPrh9+7bS4yxfvlzu2iJFiuD777+HjY0N+vfvn+3Z8S5dukAQBJiYmKB+/frYsGEDTy8kldPpEH737h127NiBAQMGoH379nB3d0dISIjaL7b99OlTrFu3Dr1790bXrl0xf/583Lhxg7+0Sa0+fPiAu3fvIiAgAMnJyXI/JyuER48ejaCgILnbgQMH8P79e6X3derUKYXrs46h7G1lDx48CEEQsGrVKoXH2LZtG27dusVfhLlUpUoV9OjRQ9NjUC6lpqbixYsXOHDggNLHUocOHVCjRg2lx0pPT8fhw4eVHicoKAhPnjxRepzo6Ogcj3HgwIEcH5Ph4eFy1xYrVgyOjo4ICgrCiRMnsv2OvHz5Mg4ePIg3b97k7ptIJAKdDuHPZWRk4NKlS3B1dYWxsbHGrt+bnJyMo0ePwsrKCpUrV8bixYs1MgeRPLp4agTljrzrCJPuK6ynRhCpi86HcGxsLIKCgjB+/HiYm5vD1tYWGzZsUPsryl++fAlfX18MGjQIrVq1wpAhQ7Bz5068fftWrXMQKcMQ1l8MYf3EECZSLZ0O4WXLlsHCwgILFy7ElStXkJGRoZE5XFxcZAKcp0SQtmII6y+GsH5iCBOplk6HMBHlDUNYfzGE9RNDmEi1GMJEhQhDWH8xhPUTQ5hItfQqhGNiYrB//36cO3dOo3M8e/YMgYGBuHv3rkbnIPoSQ1h/MYT1E0OYSLV0OoSfP38OKysrtGrVCuvXr0fjxo0xffp09OnTB9OnT1fbHKGhoWjVqhW6deuGRYsWoW3btpg5cybatGmDffv2qW0OopwwhPUXQ1g/MYSJVEunQ3jw4MF48OABkpOT0bFjR+mbCEgkElhbW6ttDisrK3z8+BFv375FkyZNpO/wlZSUBEdHR7XNQZQThrD+YgjrJ4YwkWrpdAg7ODhI/+zq6ipzkW9nZ2eNzPHl/apzDqKcMIT1F0NYPzGEiVRLp0PYzs4OGzduxMaNG2Fubo6lS5di7dq1WLt2LVq1aqW2OczNzaVzNG3aVDrD2rVr0adPH7XNQZQThrD+YgjrJ4YwkWrpdAifO3cOu3fvlrsFBgaqbY79+/crnOPMmTNqm4MoJwxh/cUQ1k8MYSLV0ukQJqK8YQjrL4awfmIIE6kWQ5ioEGEI6y+GsH5iCBOplt6G8IoVKzQ9AgDtmYMIYAjrM4awfmIIE6mW3obw51dy0CRtmYMIYAjrM4awfmIIE6mWToewp6cnGjVqhLZt22bbvv32W7XN0aNHDzRr1kzuHN27d1fbHEQ5YQjrL4awfmIIE6mWTofwmzdv0LZtWzx58iTbPnU+E3vx4kVYWFggMTFRo3MQ5YQhrL8YwvqJIUykWjodwgDw+PFjrFq1KtvtXl5eap3jyJEjCA4O1vgcRMowhPUXQ1g/MYSJVEvnQ5iIco8hrL8YwvqJIUykWgxhokKEIay/GML6iSFMpFoMYaJChCGsvxjC+okhTKRaDGGiQoQhrL8YwvqJIUykWgxhokIkK4Q3bNig0TkYwuJjCOunfv36oW7dupoeQxRGRkbw9PTU9BhEMhjCRIXI+/fvIQgCJk+erNE5vL29IQgCLly4oNE59AlDWD81btwYZcuW1fQYoihatChsbW01PQaRDJ0O4aioKEgkEk2PgVevXml6BKJcyXpGeP369Rqdg88Ii48hrJ8cHR1Rp04dTY8hCkNDQ0yfPl3TYxDJ0OkQ/vPPP9G1a1eEhoZqdI5JkybB2dkZjx8/1ugcRDnhOcL6iyGsn3iOMJFq6XQIA/++u9yIESNga2uL+/fva2yOsLAw9OjRA+PHj8e7d+80NgeRMgxh/cUQ1k8MYSLV0vkQznL79m1069YNY8aMwdu3bzUyg0QiQXBwMFq1aoUlS5YgOTlZI3MQKcIQ1l8MYf3EECZSLb0JYeDfED18+DBatWqFxYsXa2yO9PR0/P7772jWrBn279+vsTmIvsQQ1l8MYf3EECZSLb0K4Szp6ek4ffq0psdAfHw8Ll++rOkxiKQYwvqLIayfGMJEqqWXIUxE8jGE9RdDWD8xhIlUiyFMVIh8/PgRgiBg06ZNGp3j8OHDEAQBYWFhGp1DnzCE9VP//v31JoSLFi2K2bNna3oMIhl6G8KzZs1S231du3YN3bt3x4wZM5Camiqzz8PDQ21zECkSGxsLDw8PVK9eHYIgQBAEODg44N69e2qd4/HjxxgwYABKlCgBQRBgYmKC8ePH4/3792qdQx8xhPVLQEAAmjdvLn28tmzZEgEBAZoeK88+fvyIyZMno1q1atKvxdHREQ8ePND0aEQA9DiEHRwc1HZfvXv3xps3b3Dw4EFYWVnh4cOH0n19+/ZV2xykWq9evcKOHTuwdevWbO+Idu3aNbx580b68bFjx5CWlibzOffu3UNoaCgSExPlHv/+/fv5uuJJdHQ0/Pz8sH37dmzfvj1bVL558wZmZmYoXrw4Bg8ejFWrVmHq1Kn45ptvULJkSRw/flzucTMyMnDu3DmF9/vixQs8ffo013NeunQJZcuWRcWKFTFp0iSsWbMGrq6uKFWqFGrUqIFnz57JXRcbG6vwFIqYmBgEBQUhMDAQSUlJuZ5FHzGE9Yenp6c0fhcvXoyFCxeiRYsWEAQB7u7uCtfduXMHMTEx2W5PS0tDSEgI/P39ER4ersrRZURFRaFOnTooUaIEhgwZgtWrV2PKlCkwNTVFqVKlcOrUKbnrJBKJwvcHuHjxovSxrg2vBSLdp9MhPHnyZNSsWRPm5ubZtm+//VZtc4wYMUL651evXqFnz574888/IZFIGMJ6IjExES1btsTp06dx+fJlODk5ITg4WLp/1qxZGDp0qPRjGxsbfPjwQfqxl5cXPDw84O3tDTs7u2zRd/z4cXz99dcyx8yN2NhYtGjRAgEBATh58iSOHTuGuLg4mc9xcHBAmTJlcP369WxrmzdvjkqVKuHTp08y+5KTk+Hk5ISmTZvKvd+bN2+iRo0aWLduXa7mTE9PR+3atVGvXj1ER0fL7Lt//z4qVaqE9u3bZ1v38uVLNG3aFGPGjMm27+3btxg+fDj27duH7du3o1evXrmaRV8xhPXDuXPnIAgCJk6cmO2dU6dNmwZBEHDo0KFs64KCglCuXDm5ATlx4kQcPnwYV69exYQJE7B7926Vzf+5Pn36oFy5ctn+Ivvhwwc0adIEpqamiI+Pl9mXkZGB0aNHo1q1anKP2aNHD2kIW1hYqGZwKlR0OoQ/ffqEDh06yH22SJ3PCLu4uMg8mDMyMuDl5QVnZ2fY2NiobQ5SnYiICAwcOFD68Z49e7Bs2TLpx7NmzUKNGjWk57x+HsIZGRno3bu39HOvXr0q8zajd+/eRc+ePTFjxow8h3B4eLjMX8S+FBMTg6JFi2LOnDly99+5cweCIGDLli0yt48aNQp79+6Fubl5tjXR0dHo2LEjVq1alesQPnLkCARBwLFjx+Tu37x5MwRBwN27d6W3ZWZmonPnzti1a5fcEP6cRCJBy5YtczWLvmII64fBgwfD1NQ0278oAf8+JszMzNC9e3eZ269cuQI7Ozu4ubnJDeHPg/rTp0+wt7cXf/AvREdHo0iRIpg/f77c/Tdu3IAgCNi2bZvM7Z6enti8ebPcnz0AZP7CyxAmMeh0CAPA69ev8ccff2S7ffXq1Wqb4eHDh4iKisp2++nTpzF16lS1zUHiWLp0abZ/souIiJCJjH379mUL4U2bNsHa2hqAbAinpKTA1tZW+rl37tzBpEmTst3vwoUL8xXCEyZMULj/+vXrEAQB/v7+0vPzPt+cnZ1hYmKi8L9TRb+MAGD37t25DuF169ahaNGi8PDwkDvHihUrIAiC3Otu3759O8cQ3rp1K5YuXZqrWfQVQ1g/tG3bFjY2NnIfJ8WLF8eoUaNgZmYmd+306dPlhnBqair+/vtvHD58GK6urvjrr79U/WXg0qVLEAQBu3btkvu1dOjQARUqVICnp6fc9fJ+9sTGxsr8yxtDmMSg8yFMJLb58+dnO282IiICDRs2xOzZszF79mw4OjpmC+EzZ87A1dUVJ0+eVGsIu7m5KdwvkUjg7++P27dvy/1l1LFjR5w9exaRkZFy14sVwjExMTh27BgmTZokd47Fixdj3759SElJybY2pxC+d+8e+vTpg8zMzFzNoq8Ywvrhxo0bePjwIQwMDOQ+Vp4/f57tNQpZFIVwXFwctmzZgvXr18Pa2hpXrlxR9ZeBzMxM+Pv74+LFi3K/jnr16iE0NBSvXr2Su17ez57w8HD07t1b+gw3Q5jEwBAm+n8bNmyAnZ0d6tWrB3Nzc9jZ2eHMmTMA/g1hOzs7REREICIiAps2bZIbwlFRUWjfvj2sra1FC2F3d3c0a9ZMuk2cOFG6Lzw8HJMnT87xawsLC1MYwsqIFcJZpk6dqjCEFVEWwklJSejcuTNev36dpzn0EUNYv5QuXVruY0UZRSH8uZcvX8qc5qVqWc8MywthZeT97ElLS8P48eNha2sLZ2dnVK5cGWPHjlXV6FRIMISJvqDoGeGcTo3IimZPT0+UKVNGGsLp6elKzxHOoiiEExMTERMTI90+v+rE3bt3c/WLQF9DeNSoUXl+Fl1fMYT1i5gh/Pm/luhyCH+JzwiTGBjCRF8oaAh/+vQJlSpVkrlqhKen5/+1d+fRUdX3/8cvm7b6LVQR0Fa00lYQVLCVWJEtIEGWkBAChMWyfCOkQKOgkBxoFJGtlipE+EJoEFFoUcANvqIIwWIl4ldKsEBYw04igewkgSTz+v3ByfwYZgYSvDM3d/J8nPM5h7l3JnkP7SRPhzv3Kj4+XsuWLVN4eLjLWSOOHj2qpKQkhYeHa/z48UpKSnL7JLU3hYWFCg4O1uuvv67k5GQlJyd7PAVbdUN43bp1SkpK0i9/+UslJSW5HDOdnZ2tpKQkRUdHKyoqSklJSVV+R7Y6IXzp0iUtXbpUCQkJ6tKli5KSklzOe7xu3Tq1bt1aixcv1uLFi7VkyRKVlJRUaY5ARAgHluqE8IEDB5SUlKSnnnpKL7zwgpYuXeryWhg1apQWL16sDRs26KmnntKuXbv89TSqHcIbN250+dnj6QwZlQhhmIEQBq5y7Ngxt9OJlZWVuZwfOjc31+UDkocPH1ZeXp7z9t69e1VeXu7yNf7zn/9o69atKioqctl+9uxZbd682WV5OlbWm6KiIm3bts352KtPnyZVP4R37NjhMk96erpzX0FBgdu8V/99eVOdEC4vL9eWLVtcvs+Vf+cZGRku+7Zs2eL2d16bEMKBpTohnJmZ6fZaKCsrc+6vqKjQ7t27tWnTJq/H5PpKdUM4LS3N5blc6zLsV/5MBm5UwIbw1edftEpNmQO1240eGmG2Gzk0AlVDCAeWGzk0oia60UMjAH+x36uqCg4ePFgjrs2+cuVKDR8+3OoxAB05csTjL6PK0735y+zZsz3OsXTpUr/OEYgI4cBy2223ub1O6tWrZ/VY1bZ3716Pr/n27dtbPRogKUBDuKKiwuXE/FYpLCz0etlYwN/y8/Odp1GbNWuW11Om+drZs2e1fPlyGYahTz/91O1Kc7gxhHBguXTpko4fP67+/furRYsWOn78uNthVXaRl5en48ePq0GDBoqNjdWJEyf411LUGAEZwgA8O3/+vAzD0OLFiy2dY8OGDTIM45rH/6F6COHANHz48BrxL5xmuOmmm5SQkGD1GIALQhioRQjhwEUIByZCGPAtW4fwxYsXNWrUKPXs2VMhISEu67vvvvPbHKdPn1bfvn3dZhgwYIDLKbQAqxHCgYsQDkyEMOBbtg7hBQsWKCUlxW37hQsXFBkZ6bc5xowZ4/HcrQcOHHC5ChhgNUI4cBHCgYkQBnzL1iEcGxur3Nxcj/v8eeWc3//+9x63OxwOv84BXA8hHLgI4cBECAO+ZesQ/vjjj5WQkKDMzEx9//33zrV9+3a//kKYNm2a3n//fWVlZTlnyMrK0ptvvqm//OUvfpsDuB5COHARwoGJEAZ8y9YhLEmrVq1SdHS0Ro8e7VzTpk1zucqXr5WVlWnu3LkuM4wePVoLFixwucY7YDVCOHARwoGJEAZ8y/YhDKDqCOHARQgHJkIY8C1CGKhFCOHARQgHJkIY8K2ADeHPPvvM6hEk1Zw5AIkQDmSEcGAihAHfCtgQHjRokNUjSKo5cwASIRzIfv3rX3s9gw3sa9iwYYQw4EO2DuFly5bpmWee8bhat27ttzmmTp3qdY6+ffv6bQ7ges6dOyfDMDRp0iRL50hOTpZhGNq+fbulcwSSn/zkJ3r00UetHgMme+SRR9SwYUOrxzBF3bp1NWDAAKvHAFzYOoRTU1PVrl077dy5U+np6S6rd+/efptjyZIlCg0N1b59+9zm4EWPmqTyHeGFCxdaOgfvCJvvvvvu05AhQ6weAyYbNGiQWrRoYfUYpmjQoIHi4+OtHgNwYesQli7/QvX0who6dKhf53j55Ze1Zs0ay+cAroVDIwIXxwgHJo4RBnzL9iEsXb6C29UuXbpUa+eA/zkcDjVt2lQTJkyo0Ss6OlqGYahr166WztG3b18ZhqGoqCjL/04CZf30pz9Vq1atLJ+DZe5q2bKlbrvtNsvnMGPVq1dP7du3t3wOFuvKFRAhDFgtLy9PhmFo0aJFNXq9+uqrzgC1co4//OEPMgxDU6dOtfzvJFBW06ZN9bvf/c7yOVjmrqCgIDVr1szyOcxY9evXV69evSyfg8W6ctk6hIuKiqweQVLNmQPWycvL06233mr1GNfFoRGBi0MjAhOHRgC+ZesQnj9/viIjI5Wenm7pHKNHj1ZsbKyys7MtnQPWIYSrhxA2HyEcmAhhwLdsHcKStH//fvXv319jx45VZmamZXNs3rxZnTt31uzZs1VcXGzZHIHA4XBo3759WrdundatW6eUlBSPx1qnp6fru+++c9lWVFSkDz74wOvX/v7775Wenq7y8vLrzrFv3z7l5uZWaWZCuHoIYfMRwoGJEAZ8y/YhXGnz5s3q2LGjZsyYYdmhCuXl5UpOTlZQUJBWrFihiooKS+awuwkTJqh9+/Z6+eWXNWvWLPXq1Uvt2rVzi+E5c+bo17/+tcv2PXv26J577nH7mnl5eerfv7/atm2rJ598Ug899JA++ugjrzP8/e9/V4MGDbRu3boqzUwIVw8hbD5CODARwoBvBUwIS5dD9M0331T79u21fPlyy+YoLCzUSy+9pI4dO2rbtm2WzWFHxcXFql+/vnJycpzbHA6H7r33Xn3xxRcu950zZ47zA2qVvIXwyJEjNXfuXOeZPTIzM9W6dWuPh9UsWLBAd999t+6//35C2EcIYfMRwoGJEAZ8K6BCuFJRUZHeffddq8fQmTNn9Omnn1o9Ro3jcDg8nmpOknJyctSgQQO37UFBQfrkk09cts2ZM8f5ieqCggJJ3kP4rrvu0tmzZ122xcbG6q9//avLtrS0NLVs2VIZGRnq3r07IewjhLD5COHARAgDvhWQIYyabdasWXrllVc87svJydFNN93ktv3xxx/3GMKxsbGKiIjQiy++KMl7CDdr1kznz5932TZp0iT95S9/8TonIew7hLD5COHARAgDvkUIw++mTp2qadOmedx3IyG8f/9+NWrUSJmZmYTwdeTk5MgwDC1ZssTSOf73f/9XhmFo9+7dls4RSO6//36NHDnS6jFgsqefflqtWrWyegxT3Hzzzc43LYCaImBD+L333rN6BEmqEYdo1DTXC2HDMNSiRQuXddNNN3kNYUkaO3asYmJiCOFrWLt2rTp16iTDMHTrrbdq5syZKi0t9esMZWVlmjdvnu69914ZhqHf/va3euedd/w6Q6D55ptv1K9fPxmGIcMw9Ic//EHff/+91WPhBzp27Jiefvpp5/+uI0aM0NGjR60e64Z88skn6tKli/O5zJ49WxcvXrR6LEBSAIdwVFSU1SNIkgYPHmz1CDVCUlKS2rVrp3bt2qlp06Zq2rSp8/bKlSud97uRd4Sly8djN2rUSOvWrSOEPZg7d64Mw1BQUJDi4uIUGRmpunXrKjg4WGVlZX6ZweFwKDw8XHXq1FFoaKji4+OdYT558mS/zBBoNm3apAYNGui+++7TpEmTFB0drf/6r//SPffcozNnzlg9Hm7Q0aNH1bRpUzVu3FgTJkzQuHHj1LhxYzVu3Fj79++3erxqefPNN2UYhh555BHFxcUpIiJCdevWVY8ePap0GkvA1whhHyOELysoKFBGRoYyMjI0btw4jR8/3nn7ytPd3WgIS1JCQoJat27tNYTPnTvnsm3ixImaN2+e15kDJYRPnTql+vXra/To0S7b33//fb8eL/zhhx/KMAwtXbrUZfvkyZNlGIZ27drllzkChcPhUIsWLfToo4/qwoULzu379+9Xw4YNOV7YxqKionT77bfr+PHjzm2nT5/Wz372M4WEhFg4WfUUFRWpYcOG6tu3r0v0vvvuuzIMQ3/7298snA64jBD2MULYndnHCFfKz89XkyZNPIZwSEiI1q5d67xdXFysxx57TNu3b/c6Z6CE8MqVK2UYhg4cOOC2r23bturXr59f5hg/frzuuOMOtzOGFBYWqm7dupozZ45f5ggUhw8flmEYevvtt932jR07Vs2aNbNgKpjhjjvu0Lhx49y2T58+XfXq1fN4gaGaKCUlRYZhuJ36UpJat26tAQMGWDAV4MrWIfz6668rPDzc42rXrp3f5oiJifE6ByHszlchLEmJiYkeQ/jgwYN64IEHNHjwYE2cOFEPPPCAXn31Vbf7paWlKTo6WtHR0brrrrvUvXt3RUdHe523Uk0O4VWrVskwDI//pPrggw8qLCzML3NMmDBBjRs3drvQTH5+vurWras///nPfpkjUBw5ckSGYeitt95y2xcdHa0777zTgqlghiZNmigmJsZte0JCgurXr2+bEN66dasMw1BKSorbvpYtWyoyMtKCqQBXtg5h2NOBAwd05MgRj/scDoc2b97stn3Hjh3OcwVXOnTokNtZB8rLy/XZZ595/NplZWVKSUnRe++95/XDRFlZWXr//ffd1tatW6/5nGpyCGdlZenmm2/WkCFDXCK08p3iZcuW+WWOTz75RIZhaP78+S7bx48frzp16mjPnj1+mSOQtGzZUg899JDy8/Od29LS0nTLLbfomWeesXAy/BBPP/20GjVqpEOHDjm3HT16VE2aNFHfvn0tnKx6Lly4oNtvv109evRwiffly5fLMAytWLHCwumAywhhwAQ1OYQl6Y033pBhGPrNb36jKVOmqH///qpTp4569erl10uBDx06VIZhqHfv3oqLi9Pjjz8uwzA0ffp0v80QSLZt26Yf/ehHat68uZ577jmNHj1at9xyi371q18pOzvb6vFwg06dOqWf//znatSokcaNG6eYmBg1atRId955pzIyMqwer1r+8Y9/qE6dOnrwwQc1ZcoUhYWFyTAM9evXz+uFlQB/snUI79+/3+1MAFbYtWuXiouLrR4DFqrpISxJ69evV5cuXdSkSRM9+OCD+vOf/+z3f2KtqKhQYmKi2rVrpzvuuEMdOnSoMac6tKu0tDRFRETozjvv1H333afY2Nga8XMRP8zp06c1evRo3X333WrevLn++7//W6dPn7Z6rBuyZcsWdevWTU2aNNFDDz2kefPm+e1sNcD12DqE169fr7CwMPXo0UMzZ87Uzp07/fruVqXExESFhISoX79+Wrhwoe3+ix0/nB1CGAAAuLJ1CFcqKSnRZ599pmeffVadO3fWqFGj9MEHH/h9jpycHL377rsaMWKEOnfurIkTJ+rrr7/2+xy1zYkTJ9ShQ4dr/l1369bN7d2Ul156yevFHLKystS1a1dt2bKlSjMQwgAADYwaUAAAFkNJREFU2E9AhHBZWZlSU1M1c+ZMhYSEqGvXrpaciqmoqEiffvqpJk+erE6dOqlPnz5cWc7H9uzZo+bNm+uWW27Rpk2bvN6vefPm6tOnj/OYtB07dqhu3bpatGiR230PHTqkFi1a6NZbbw2I06cBAADPbB3CGzZsUGhoqDp27KiJEydqw4YNbmcW8IfExER1795d3bp10/Tp0/Xll19y+Ug/2L9/v5o2baq3335bQUFB1w3hpk2bavny5SouLlarVq3UrFkztxA+duyY7rrrLi1evDhgziMMAAA8s3UI79u3T5mZmVaPof/7v/+zJMBru7NnzzoviFGVEP7oo4/UrFkz/f73v1dkZKTGjh3rFsI5OTnatm2bpMC5oEZJSckP2u+POS5duqTz58/zKfIqKCkpUXZ2trKzs12uylgpPz/fuT87O5ufTTZTUVGh0tJSj/vKy8uVk5Njm/MIl5aWenxNl5SUOH8eFBQUcKllWMrWIQxUqkoIZ2Rk6H/+53907733Kjc3VzExMR4PjagUCCG8fft2NW7c2OU8s5UqKioUHx+vgQMH+nyO5ORktW3b1uO+Z599VqNGjdLzzz+v0NBQzsByHQsXLlRYWJief/55jRgxQpMmTXLZ36VLF40fP965rvX/cdQsxcXFioiI0IwZM9z2paSkaNy4cZo9e7aGDRum1atXWzBh1e3du1fNmzf3eCGfN954w/k5noSEBD5LA0sRwggIVQ1hh8Oh3NxcSQr4EE5JSVFISIg6duyovLw8t/1jxoxRfHy8z6/u9NprrykmJkZPPPGEx/1XHkb03HPPaceOHT6dx+4WLlzo8mHgnj17uryDGBERYcVY+IFKS0v11FNP6dlnn9XLL7/stv/o0aPOU445HA6FhIT4e8Qq27Vrlzp37qw+ffooPT3dbX9MTIxOnDghiRCG9WwdwuXl5VqxYoXmz5+vU6dOKSoqSg8++KDatGnj8drmvpKfn6/58+drxYoVSk9PV7du3dSmTRs9/vjjOn78uN/mCBSvvPKKnn/+eZf1wgsvXPMwmKqG8JUCPYSPHTumCxcuqE+fPh5DOD09XVlZWT4P4fT0dDkcDnXq1Oma98vLy1NISIguXLjg03ns7soQLikpUVBQkMt/TBDC9lRWVqaDBw9q06ZNHkNYuhzAFRUVSktLU3h4uJ8nrLrMzEzl5uYqOjraYwhHRkY6D5kghGE1W4fw9OnT9dJLL+mtt95Sq1attGbNGkmXjx3t1q2b3+aIjIzU4sWLtWDBAt1zzz3OF/7OnTs1YsQIv80RKMaOHashQ4a4rKFDh+rYsWNeH0MIe+cthCX5JYQrXSuEHQ6Hhg0bpm+//dYvs9jZwoUL1alTJ0VFRWnQoEHauHGjy/4nnnhCkZGRzrVv3z6LJsWNuFYIT5w4UZGRkbr//vu1YcMGP09Wfd5CuEuXLoQwagxbh/DAgQOdL6ZnnnnG5TjIqKgov85RafDgwS77/DlHbUYIe2eHEF6yZIleffVVv8xhd1cfGnE13hG2t2uFcKWLFy/qySef9NNEN85bCA8fPlz9+/dXXFycOnTooKioKJ07d86CCYEACOGCggIVFBRo5MiROnr0qM6dO6dz585pwIABfpsjIiLCOceAAQOcM5w7d84tjGGevLw8paamKjU1VQ888IAWLFig1NRUjx/OqGoIFxYWOr/mo48+qtmzZys1NVV79+697iyE8LV5C+Hdu3erX79+llwV0o4I4cBWlRCWpF69evlhmh/GWwhL0vnz53Xs2DHFxsbqo48+4vUPy9g6hOfMmaN+/fp5XEOHDvXbHCNHjvQ6R1V+oOHGbN68WX369HFbsbGxbvcdN26c80NylZKTk5WSkuKy7auvvvL4NaOjo685S00M4dzcXGVkZCg4OFhpaWk6deqUy/4TJ05ox44d6tWrlzIyMjyeWcIMWVlZysjIUPv27ZWRkeHyzk9RUZF++9vf6ssvv9Thw4d1+PBhjhG+juuFcL9+/XT8+HHnys7O9uN0uFEVFRXKyMjQihUr9NxzzykjI8PllIN/+9vf9MUXX6isrEyrV6/W+PHjLZz22goKCpSRkaFBgwbp888/v+ZnZTg0AlazdQgDNUVNDOGPP/5YcXFxznX11RYTEhJc9n/++ec+mWPhwoUu32fVqlXOfQcPHnTZFxcXd91332u71NTUax73u2jRIpe/zzfffNOP0+FGnTt3zu218J///Me5v7CwUMnJyZo8ebISExOdZ5CoibZu3eryPKZNm+b1Hd+tW7fWiOsBoPYihAET1MQQBgAA1xZQIXzp0iWNHTvW6jGUmpqqpUuXWj0G/IgQBgDAfgIqhC9evFgjztLwxRdfaMGCBVaPAT8ihAEAsJ+ACOGdO3cqODhYXbp0UZMmTRQcHGzJJ6ffeecdBQcHq127dvrVr36l4OBgJSQk+H0O+B8hDACA/QRECFfiHWFYhRAGAMB+Ai6EhwwZYvUY+uc//6nExESrx4AfEcIAANhPQIWwJJ+dC7U6ysrKVFRUZPUY8CNCGAAA+wm4EAasQAgDAGA/hDBgAkIYAAD7IYQBExDCAADYDyEMmIAQBgDAfghhwASEMAAA9kMIAyYghAEAsB9CGDABIQwAgP0QwoAJCGEAAOyHEAZMUJtC+NKlS5o8ebLy8vKsHgVAFXzwwQf6+OOPrR4DqJEIYcAEtSmEv/vuOxmGoQ0bNlg9CoAqCA4OVo8ePaweA6iRCGHABLUphHfv3i3DMLR+/XqrRwFQBV27dtWTTz5p9RhAjUQIAyYghAHUVIQw4B0hDJiAEAZQUxHCgHeEMGCCQAzhtLQ0DRo0SBERES6refPmMgxDhmG47RswYIDWrFlj9ehArTRp0iS312RERITX12tERIQmT55s9diApQhhwASBGMIzZ86UYRh64oknXFbr1q1lGIYaNmzotq9hw4Z66qmnrB4dqHUKCwtlGIZatGjh9rqsDOGrt993330yDEMlJSVWjw9YhhAGTBCIIfzKK6+oTp061XpMx44d1bNnTx9NBMCbgoICGYahxMTEKj/mr3/9qwzDUHFxsQ8nA2o2QhgwASF82dUhnJWVpYMHD5o9GoCrmBHCDodDX331lRwOh6/GBGocQhgwASF82ZUhvHHjRt1+++18SAfwgx8awjk5Oerdu7cMw9CePXt8OClQsxDCgAkI4cs6duyokJAQTZ8+XXXr1lWHDh10+vRpH00IoNIPCeF//etf+sUvfqFbb71Vq1at8uGUQM1DCAMmIIQva9OmjfODOX/84x916dIlH00H4Eo/JIQNw1DLli15Jxi1EiEMmIAQlnbt2uX8pcq7SoB/VTeES0pKnK/X3r17q6CgwMcTAjUTIQyYoLaH8PLly/WjH/1IhmHo5z//uY8nA3C16oRwRkaGHnnkEWcIc9YI1GaEMGCC2hrCpaWlGjNmjAzDUHh4uB5++GFOnwZYoKohvH79et1222268847FRYWRgij1iOEARPUxhA+fvy42rdvr3r16mnOnDlyOBycRxiwyPVCuKKiQtOmTVOdOnXUqVMnZWZmch5hQIQwYIraFsKbNm1S48aN1aRJE23evNm5nRAGrHGtEM7OzlaPHj1kGIaef/55lZWVSeKCGoBECAOmqC0h7HA4NHPmTNWtW1ePPfaYTp486bKfEAas4S2Ed+zYoebNm+snP/mJ1q5d67KPEAYIYcAUtSGE8/LyFBoaKsMwFBMTo4sXL7o9hhAGrOEphBctWqSbbrpJbdq00YEDB9weQwgDhDBgikAP4d27d+uXv/ylfvzjH2vFihVeH0MIA9a4MoQvXLig4cOHyzAMDRkyREVFRR4fQwgDhDBgikAO4bfffls//vGP1aJFC6WlpV3zMYQwYI3KEP7jH/+ohx56SA0aNLjuGSQIYYAQBkwRiCGckJDgPM9o3759lZube93HEMKANSpD2DAM3X333dq+fft1H0MIA4QwYIpAC+GTJ086f6m+8sorcjgcVXocIQz4X3l5uWJiYpyv2bNnz1bpcYQwQAgDpgikEN6yZYuaNGni/KVaHYQw4F9ZWVnq0qWL8/X6+uuvV/mxhDBACAOmCJQQnjt3rurVq6dHH31U0dHRVb7EciVCGPCff/3rX/rZz36mn/70p1q5cmWVL7FciRAGCGHAFIEQwjNnzpRhGIqOjlZpaWmVLrF8NUIY8I/du3erfv36atu2rQ4fPlzlSyxfiRAGCGHAFIEQwkOGDFGrVq2ctwlhoOZ67733ZBiG9u/fL+n6l1j2hBAGCGHAFIESwq1bt3beJoSBmqsyhA8ePCiJEAZuFCEMmCBQQ9gwDI0ePdpljRw5UoZhaPDgwW77mjVrRggDfuAthH/3u9+5vS7vvvtu3XvvvW7bg4KCCGHUeoQwYIJADOEtW7bo4YcfVuvWrV1W5afTDcNw29emTZtqfWodwI25OoQrKirUu3dvt9fkla9ZT/tCQ0OrfHpEIBARwoAJAjGEvdm9e7cMw9D69ev9MBUAT64O4Wvp2rWrnnzyST9MBdgPIQyYgBAG4E+EMGAOQhgwQSCE8MSJE9W9e/fr3o8QBqy3bds23XzzzcrOzr7ufQlhwDtCGDBBIIRwWVmZSktLr3s/QhioGQoLC6t0P0IY8I4QBkwQCCFcVUVFRerXr59Onz5t9SgAqiAxMVGLFi2yegygRiKEARPUphAGACBQEMKACQhhAADshxAGTEAIAwBgP4QwYAJCGAAA+yGEARMQwgAA2A8hDJiAEAYAwH4IYcAEhDAAAPZDCAMmIIQBALAfQhgwASEMAID9EMKACQhhAADshxAGTEAIAwBgP4QwYAJCGAAA+yGEARMQwgAA2A8hDJiAEAYAwH4IYcAEhDAAAPZDCAMmIIQBALAfQhgwASEMAID9EMKACQhhAADshxAGTEAIAwBgP4QwYAJCGAAA+yGEARMQwgAA2A8hDJiAEAYAwH4IYcAEhDAAAPZDCAMmIIQBALAfQhgwASEMAID9EMKACQhhAADshxAGTEAIAwBgP4QwYAJCGAAA+yGEARMQwgAA2A8hDJiAEAYAwH4IYcAEhDAAAPZDCAMmsEsIl5eXKzs7W9nZ2crLy5PD4XDZX1paqtzcXOfKy8vz+HVKSkq8fo+rv2Z19wN2d/78eeefS0pKVF5e7rztcDhcXmO5ubm6dOmSc//FixddXiPXeq15c+nSJV28eNFte0VFhfLz853f58KFC9X+2iUlJV5fwyUlJR5/rlTitY+aiBAGTGCXEN67d68eeeQRvfDCC5owYYL69++v3Nxc5/4PP/xQY8aMUfPmzTVq1CiNHTtWZWVlzv0Oh0OvvvqqunXr5va1HQ6HXnzxRUVFRSkqKkrLli1z2X/y5ElFRkZqxIgRioqK0qFDh3z3RAEL9e/fX9Ll18SIESOUlZXl3JeTk6MxY8aoZ8+eeuyxxzRmzBht3brVuX/hwoV66623JF2O1SeeeMIlpK9n/vz5Gjp0qIYPH66FCxe67Nu5c6cmT54sSfrkk0/0+uuvV+t5ffvtt2rWrJkyMzPd9sXHx2v69OmaOXOmBgwYoJMnTzr3VVRUaMqUKRoyZIgGDx6sVatWVev7Ar5ECAMmsFMIx8bGOm/PmTNHGzdudLtfnz59VFRU5LZ96tSpio+PV5cuXdz2ff7555o1a5bz9jPPPKMDBw44bw8dOtT5CzQ/P1+hoaE/5KkANVZ4eLgk6e9//7uWLFni8T7r16/XvHnz3LYXFxerQ4cOKi4u1vz58/XGG29U63v36tXL+ee+ffu67FuxYoVWr14tqfoh/NVXX6lbt27q1q2bzpw547b/8OHDzj+npqbqxRdfdN7+8MMPNX/+fOftYcOG6cSJE1X+3oAvEcKACewYwg6HQ+PGjVNKSorb/byF8L59+1RRUeExhP/xj39o5cqVztszZszQl19+6bx99S/lkJCQG30aQI0WHh6uM2fOaNCgQV4PB/AWwpK0cuVKxcXFqUOHDi6HTVRFjx49lJ+fr7y8PPXs2dNl35QpU5zBWt0QPnnypAoKCjRw4ECPISxd/ply8eJFzZgxQ++8845ze3Jysj744APn7bi4OP373/+uztMCfIYQBkxgpxC+//77FRUVpYEDB+q1117z+IvaWwhLIoSB6wgLC1NkZKRee+01r/e5VghXVFToN7/5jT788MNqf+8JEyYoKChIbdu2VUJCgsu+8PBw5eTkSLqxQyMkeQ3h9PR0DR48WKGhoXr44Yddjj8mhFGTEcKACewUwlceGuENIQzcuODgYL3//vsaOHCgMjIyPN7nWiEsSU8//bSOHTtWre+7a9cuDRs2TA6HQw6HQ0OGDHH5/omJierQoYOmTJmigQMHqnPnzs4graio0IsvvqipU6c6144dO9y+x7XeEa60Zs0aLViwwHmbEEZNRggDJiCEpdWrV+vtt9923p4+fbq2b9/u8jWvfPf56n+2BQJFWFiYJOnEiRMKDQ1VRUWF2318EcLr1693ORY3Pj5eX3/9tct9CgsLdfz4cb311ltKSEhQaWmppMuHNaxZs0arV692riNHjrh9j6qE8Lfffqtp06Y5by9btkzr1q1z3p48ebJ2795drecG+AohDJigtoTw6dOndfjwYQUFBSkjI8PljBMnTpxQWFiYDhw4oH//+98KCwtznqpJkubNm6fXXntNZ86cUXJysv70pz+Z86SAGqbyw3KStHTpUpc4reSLED5z5ozCwsK0Z88effvtt87jhT2p7qER+fn5ysjIUK9evfT111+7nRVi0qRJ+v7771VQUKBBgwYpNTXVuf/gwYMaMGCADh8+rG+++UZhYWEqLi6u1nMDfIUQBkxglxDOzs7W+vXrr3u/xYsXe/yQzty5cxUXF+dcVx/DeOjQIf3pT3/S7NmzXc6lKl1+x2nt2rWKi4vT6tWrOacoAtbatWudf3Y4HHrvvffc7rNnzx5t2bLF69dYs2aN14i9llOnTmnatGmaMWOGzp075/V+R44c8XjogzcbN250ee2//PLLLvv37NmjWbNmKT4+Xv/85z/dHr9v3z5NmzZNc+fO9Xp+csAKhDBgAruEMAAA+P8IYcAEhDAAAPZDCAMmIIQBALAfQhgwASEMAID9EMKACQhhAADshxAGTEAIAwBgP4QwYAJCGAAA+yGEARMQwgAA2A8hDJiAEAYAwH4IYcAEhDAAAPZDCAMmIIQBALAfQhgwASEMAID9EMKACQhhAADshxAGTEAIAwBgP4QwYAJCGAAA+yGEARMQwgAA2A8hDJiAEAYAwH4IYcAEhDAAAPZDCAMmIIQBALAfQhgwASEMAID9EMKACQhhAADshxAGTFBYWKh69eqpe/fuLBaLxWKxbLIIYcAk33zzjVJSUlgsFovFYtlkEcIAAAColQhhAAAA1EqEMAAAAGolQhgAAAC1EiEMAACAWokQBgAAQK1ECAMAAKBWIoQBAABQKxHCAAAAqJUIYQAAANRKhDAAAABqJUIYAAAAtRIhDAAAgFqJEAYAAECtRAgDAACgViKEAQAAUCsRwgAAAKiVCGEAAADUSoQwAAAAaiVCGAAAALUSIQwAAIBaiRAGAABArfT/ALSHE4uKPVMQAAAAAElFTkSuQmCC;" vertex="1" parent="1">
          <mxGeometry x="93" y="524" width="706" height="689" as="geometry"/>
        </mxCell>
        <mxCell id="VJcRAeQI5A_FNW1bYBen-18" value="" style="group" vertex="1" connectable="0" parent="1">
          <mxGeometry x="63" y="1257" width="210" height="250" as="geometry"/>
        </mxCell>
        <mxCell id="kWX6cQkRgFP0hQEqi8io-1" value="测温盒" style="rounded=1;whiteSpace=wrap;html=1;" parent="VJcRAeQI5A_FNW1bYBen-18" vertex="1">
          <mxGeometry width="120" height="250" as="geometry"/>
        </mxCell>
        <mxCell id="kWX6cQkRgFP0hQEqi8io-3" value="" style="endArrow=none;html=1;entryX=1.008;entryY=0.184;entryDx=0;entryDy=0;entryPerimeter=0;" parent="VJcRAeQI5A_FNW1bYBen-18" target="kWX6cQkRgFP0hQEqi8io-1" edge="1">
          <mxGeometry width="50" height="50" relative="1" as="geometry">
            <mxPoint x="210" y="45" as="sourcePoint"/>
            <mxPoint x="50" y="170" as="targetPoint"/>
          </mxGeometry>
        </mxCell>
        <mxCell id="kWX6cQkRgFP0hQEqi8io-4" value="" style="endArrow=none;html=1;entryX=1.008;entryY=0.184;entryDx=0;entryDy=0;entryPerimeter=0;" parent="VJcRAeQI5A_FNW1bYBen-18" edge="1">
          <mxGeometry width="50" height="50" relative="1" as="geometry">
            <mxPoint x="209" y="80" as="sourcePoint"/>
            <mxPoint x="119.96000000000004" y="81" as="targetPoint"/>
          </mxGeometry>
        </mxCell>
        <mxCell id="kWX6cQkRgFP0hQEqi8io-5" value="" style="endArrow=none;html=1;entryX=1.008;entryY=0.184;entryDx=0;entryDy=0;entryPerimeter=0;" parent="VJcRAeQI5A_FNW1bYBen-18" edge="1">
          <mxGeometry width="50" height="50" relative="1" as="geometry">
            <mxPoint x="209" y="124.5" as="sourcePoint"/>
            <mxPoint x="119.96000000000004" y="125.5" as="targetPoint"/>
          </mxGeometry>
        </mxCell>
        <mxCell id="kWX6cQkRgFP0hQEqi8io-6" value="" style="endArrow=none;html=1;entryX=1.008;entryY=0.184;entryDx=0;entryDy=0;entryPerimeter=0;" parent="VJcRAeQI5A_FNW1bYBen-18" edge="1">
          <mxGeometry width="50" height="50" relative="1" as="geometry">
            <mxPoint x="209" y="160" as="sourcePoint"/>
            <mxPoint x="119.96000000000004" y="161" as="targetPoint"/>
          </mxGeometry>
        </mxCell>
        <mxCell id="kWX6cQkRgFP0hQEqi8io-7" value="" style="endArrow=none;html=1;entryX=1.008;entryY=0.184;entryDx=0;entryDy=0;entryPerimeter=0;" parent="VJcRAeQI5A_FNW1bYBen-18" edge="1">
          <mxGeometry width="50" height="50" relative="1" as="geometry">
            <mxPoint x="209" y="200" as="sourcePoint"/>
            <mxPoint x="119.96000000000004" y="201" as="targetPoint"/>
          </mxGeometry>
        </mxCell>
        <mxCell id="kWX6cQkRgFP0hQEqi8io-8" value="" style="endArrow=none;html=1;entryX=1.008;entryY=0.184;entryDx=0;entryDy=0;entryPerimeter=0;" parent="VJcRAeQI5A_FNW1bYBen-18" edge="1">
          <mxGeometry width="50" height="50" relative="1" as="geometry">
            <mxPoint x="209" y="230" as="sourcePoint"/>
            <mxPoint x="119.96000000000004" y="231" as="targetPoint"/>
          </mxGeometry>
        </mxCell>
        <mxCell id="kWX6cQkRgFP0hQEqi8io-9" value="11" style="text;html=1;strokeColor=none;fillColor=none;align=center;verticalAlign=middle;whiteSpace=wrap;rounded=0;" parent="VJcRAeQI5A_FNW1bYBen-18" vertex="1">
          <mxGeometry x="170" y="30" width="40" height="20" as="geometry"/>
        </mxCell>
        <mxCell id="kWX6cQkRgFP0hQEqi8io-10" value="12" style="text;html=1;strokeColor=none;fillColor=none;align=center;verticalAlign=middle;whiteSpace=wrap;rounded=0;" parent="VJcRAeQI5A_FNW1bYBen-18" vertex="1">
          <mxGeometry x="170" y="60" width="40" height="20" as="geometry"/>
        </mxCell>
        <mxCell id="kWX6cQkRgFP0hQEqi8io-11" value="13" style="text;html=1;strokeColor=none;fillColor=none;align=center;verticalAlign=middle;whiteSpace=wrap;rounded=0;" parent="VJcRAeQI5A_FNW1bYBen-18" vertex="1">
          <mxGeometry x="170" y="105" width="40" height="20" as="geometry"/>
        </mxCell>
        <mxCell id="kWX6cQkRgFP0hQEqi8io-12" value="41" style="text;html=1;strokeColor=none;fillColor=none;align=center;verticalAlign=middle;whiteSpace=wrap;rounded=0;" parent="VJcRAeQI5A_FNW1bYBen-18" vertex="1">
          <mxGeometry x="170" y="180" width="40" height="30" as="geometry"/>
        </mxCell>
        <mxCell id="kWX6cQkRgFP0hQEqi8io-13" value="14" style="text;html=1;strokeColor=none;fillColor=none;align=center;verticalAlign=middle;whiteSpace=wrap;rounded=0;" parent="VJcRAeQI5A_FNW1bYBen-18" vertex="1">
          <mxGeometry x="170" y="140" width="40" height="20" as="geometry"/>
        </mxCell>
        <mxCell id="kWX6cQkRgFP0hQEqi8io-14" value="42" style="text;html=1;strokeColor=none;fillColor=none;align=center;verticalAlign=middle;whiteSpace=wrap;rounded=0;" parent="VJcRAeQI5A_FNW1bYBen-18" vertex="1">
          <mxGeometry x="170" y="210" width="40" height="20" as="geometry"/>
        </mxCell>
        <mxCell id="kWX6cQkRgFP0hQEqi8io-24" value="&lt;div&gt;PT100&lt;/div&gt;" style="text;html=1;strokeColor=none;fillColor=none;align=center;verticalAlign=middle;whiteSpace=wrap;rounded=0;" parent="VJcRAeQI5A_FNW1bYBen-18" vertex="1">
          <mxGeometry x="70" y="50" width="40" height="20" as="geometry"/>
        </mxCell>
        <mxCell id="kWX6cQkRgFP0hQEqi8io-25" value="KTY" style="text;html=1;strokeColor=none;fillColor=none;align=center;verticalAlign=middle;whiteSpace=wrap;rounded=0;" parent="VJcRAeQI5A_FNW1bYBen-18" vertex="1">
          <mxGeometry x="70" y="130" width="40" height="30" as="geometry"/>
        </mxCell>
        <mxCell id="kWX6cQkRgFP0hQEqi8io-26" value="&lt;div&gt;风扇温控&lt;/div&gt;&lt;div&gt;&lt;br&gt;&lt;/div&gt;" style="text;html=1;strokeColor=none;fillColor=none;align=center;verticalAlign=middle;whiteSpace=wrap;rounded=0;" parent="VJcRAeQI5A_FNW1bYBen-18" vertex="1">
          <mxGeometry x="50" y="210" width="60" height="20" as="geometry"/>
        </mxCell>
        <mxCell id="VJcRAeQI5A_FNW1bYBen-19" value="" style="group" vertex="1" connectable="0" parent="1">
          <mxGeometry x="140" y="250" width="210" height="250" as="geometry"/>
        </mxCell>
        <mxCell id="VJcRAeQI5A_FNW1bYBen-20" value="测温盒" style="rounded=1;whiteSpace=wrap;html=1;" vertex="1" parent="VJcRAeQI5A_FNW1bYBen-19">
          <mxGeometry width="120" height="250" as="geometry"/>
        </mxCell>
        <mxCell id="VJcRAeQI5A_FNW1bYBen-21" value="" style="endArrow=none;html=1;entryX=1.008;entryY=0.184;entryDx=0;entryDy=0;entryPerimeter=0;" edge="1" parent="VJcRAeQI5A_FNW1bYBen-19" target="VJcRAeQI5A_FNW1bYBen-20">
          <mxGeometry width="50" height="50" relative="1" as="geometry">
            <mxPoint x="210" y="45" as="sourcePoint"/>
            <mxPoint x="50" y="170" as="targetPoint"/>
          </mxGeometry>
        </mxCell>
        <mxCell id="VJcRAeQI5A_FNW1bYBen-22" value="" style="endArrow=none;html=1;entryX=1.008;entryY=0.184;entryDx=0;entryDy=0;entryPerimeter=0;" edge="1" parent="VJcRAeQI5A_FNW1bYBen-19">
          <mxGeometry width="50" height="50" relative="1" as="geometry">
            <mxPoint x="209" y="80" as="sourcePoint"/>
            <mxPoint x="119.96000000000004" y="81" as="targetPoint"/>
          </mxGeometry>
        </mxCell>
        <mxCell id="VJcRAeQI5A_FNW1bYBen-23" value="" style="endArrow=none;html=1;entryX=1.008;entryY=0.184;entryDx=0;entryDy=0;entryPerimeter=0;" edge="1" parent="VJcRAeQI5A_FNW1bYBen-19">
          <mxGeometry width="50" height="50" relative="1" as="geometry">
            <mxPoint x="209" y="124.5" as="sourcePoint"/>
            <mxPoint x="119.96000000000004" y="125.5" as="targetPoint"/>
          </mxGeometry>
        </mxCell>
        <mxCell id="VJcRAeQI5A_FNW1bYBen-24" value="" style="endArrow=none;html=1;entryX=1.008;entryY=0.184;entryDx=0;entryDy=0;entryPerimeter=0;" edge="1" parent="VJcRAeQI5A_FNW1bYBen-19">
          <mxGeometry width="50" height="50" relative="1" as="geometry">
            <mxPoint x="209" y="160" as="sourcePoint"/>
            <mxPoint x="119.96000000000004" y="161" as="targetPoint"/>
          </mxGeometry>
        </mxCell>
        <mxCell id="VJcRAeQI5A_FNW1bYBen-25" value="" style="endArrow=none;html=1;entryX=1.008;entryY=0.184;entryDx=0;entryDy=0;entryPerimeter=0;" edge="1" parent="VJcRAeQI5A_FNW1bYBen-19">
          <mxGeometry width="50" height="50" relative="1" as="geometry">
            <mxPoint x="209" y="200" as="sourcePoint"/>
            <mxPoint x="119.96000000000004" y="201" as="targetPoint"/>
          </mxGeometry>
        </mxCell>
        <mxCell id="VJcRAeQI5A_FNW1bYBen-26" value="" style="endArrow=none;html=1;entryX=1.008;entryY=0.184;entryDx=0;entryDy=0;entryPerimeter=0;" edge="1" parent="VJcRAeQI5A_FNW1bYBen-19">
          <mxGeometry width="50" height="50" relative="1" as="geometry">
            <mxPoint x="209" y="230" as="sourcePoint"/>
            <mxPoint x="119.96000000000004" y="231" as="targetPoint"/>
          </mxGeometry>
        </mxCell>
        <mxCell id="VJcRAeQI5A_FNW1bYBen-27" value="11" style="text;html=1;strokeColor=none;fillColor=none;align=center;verticalAlign=middle;whiteSpace=wrap;rounded=0;" vertex="1" parent="VJcRAeQI5A_FNW1bYBen-19">
          <mxGeometry x="170" y="30" width="40" height="20" as="geometry"/>
        </mxCell>
        <mxCell id="VJcRAeQI5A_FNW1bYBen-28" value="12" style="text;html=1;strokeColor=none;fillColor=none;align=center;verticalAlign=middle;whiteSpace=wrap;rounded=0;" vertex="1" parent="VJcRAeQI5A_FNW1bYBen-19">
          <mxGeometry x="170" y="60" width="40" height="20" as="geometry"/>
        </mxCell>
        <mxCell id="VJcRAeQI5A_FNW1bYBen-29" value="13" style="text;html=1;strokeColor=none;fillColor=none;align=center;verticalAlign=middle;whiteSpace=wrap;rounded=0;" vertex="1" parent="VJcRAeQI5A_FNW1bYBen-19">
          <mxGeometry x="170" y="105" width="40" height="20" as="geometry"/>
        </mxCell>
        <mxCell id="VJcRAeQI5A_FNW1bYBen-30" value="41" style="text;html=1;strokeColor=none;fillColor=none;align=center;verticalAlign=middle;whiteSpace=wrap;rounded=0;" vertex="1" parent="VJcRAeQI5A_FNW1bYBen-19">
          <mxGeometry x="170" y="180" width="40" height="30" as="geometry"/>
        </mxCell>
        <mxCell id="VJcRAeQI5A_FNW1bYBen-31" value="14" style="text;html=1;strokeColor=none;fillColor=none;align=center;verticalAlign=middle;whiteSpace=wrap;rounded=0;" vertex="1" parent="VJcRAeQI5A_FNW1bYBen-19">
          <mxGeometry x="170" y="140" width="40" height="20" as="geometry"/>
        </mxCell>
        <mxCell id="VJcRAeQI5A_FNW1bYBen-32" value="42" style="text;html=1;strokeColor=none;fillColor=none;align=center;verticalAlign=middle;whiteSpace=wrap;rounded=0;" vertex="1" parent="VJcRAeQI5A_FNW1bYBen-19">
          <mxGeometry x="170" y="210" width="40" height="20" as="geometry"/>
        </mxCell>
        <mxCell id="VJcRAeQI5A_FNW1bYBen-33" value="&lt;div&gt;PT100&lt;/div&gt;" style="text;html=1;strokeColor=none;fillColor=none;align=center;verticalAlign=middle;whiteSpace=wrap;rounded=0;" vertex="1" parent="VJcRAeQI5A_FNW1bYBen-19">
          <mxGeometry x="70" y="50" width="40" height="20" as="geometry"/>
        </mxCell>
        <mxCell id="VJcRAeQI5A_FNW1bYBen-34" value="KTY" style="text;html=1;strokeColor=none;fillColor=none;align=center;verticalAlign=middle;whiteSpace=wrap;rounded=0;" vertex="1" parent="VJcRAeQI5A_FNW1bYBen-19">
          <mxGeometry x="70" y="130" width="40" height="30" as="geometry"/>
        </mxCell>
        <mxCell id="VJcRAeQI5A_FNW1bYBen-35" value="&lt;div&gt;风扇温控&lt;/div&gt;&lt;div&gt;&lt;br&gt;&lt;/div&gt;" style="text;html=1;strokeColor=none;fillColor=none;align=center;verticalAlign=middle;whiteSpace=wrap;rounded=0;" vertex="1" parent="VJcRAeQI5A_FNW1bYBen-19">
          <mxGeometry x="50" y="210" width="60" height="20" as="geometry"/>
        </mxCell>
        <mxCell id="VJcRAeQI5A_FNW1bYBen-37" value="" style="endArrow=none;html=1;" edge="1" parent="1" source="VJcRAeQI5A_FNW1bYBen-1" target="VJcRAeQI5A_FNW1bYBen-1">
          <mxGeometry width="50" height="50" relative="1" as="geometry">
            <mxPoint x="584" y="1147" as="sourcePoint"/>
            <mxPoint x="634" y="1097" as="targetPoint"/>
          </mxGeometry>
        </mxCell>
        <mxCell id="VJcRAeQI5A_FNW1bYBen-43" value="" style="group" vertex="1" connectable="0" parent="1">
          <mxGeometry x="578" y="1087" width="55" height="53" as="geometry"/>
        </mxCell>
        <mxCell id="VJcRAeQI5A_FNW1bYBen-41" value="" style="endArrow=none;html=1;strokeColor=#FF3333;strokeWidth=4;" edge="1" parent="VJcRAeQI5A_FNW1bYBen-43">
          <mxGeometry width="50" height="50" relative="1" as="geometry">
            <mxPoint y="50" as="sourcePoint"/>
            <mxPoint x="50" as="targetPoint"/>
          </mxGeometry>
        </mxCell>
        <mxCell id="VJcRAeQI5A_FNW1bYBen-42" value="" style="endArrow=none;html=1;strokeColor=#FF3333;strokeWidth=4;" edge="1" parent="VJcRAeQI5A_FNW1bYBen-43">
          <mxGeometry width="50" height="50" relative="1" as="geometry">
            <mxPoint x="1" y="3" as="sourcePoint"/>
            <mxPoint x="55" y="53" as="targetPoint"/>
          </mxGeometry>
        </mxCell>
        <mxCell id="VJcRAeQI5A_FNW1bYBen-46" value="" style="endArrow=none;html=1;strokeColor=#000000;strokeWidth=4;" edge="1" parent="VJcRAeQI5A_FNW1bYBen-43">
          <mxGeometry width="50" height="50" relative="1" as="geometry">
            <mxPoint x="6" y="-27" as="sourcePoint"/>
            <mxPoint x="6" y="211" as="targetPoint"/>
          </mxGeometry>
        </mxCell>
        <mxCell id="VJcRAeQI5A_FNW1bYBen-44" value="" style="endArrow=none;html=1;strokeColor=#000000;strokeWidth=4;entryX=1;entryY=0.75;entryDx=0;entryDy=0;" edge="1" parent="1" target="kWX6cQkRgFP0hQEqi8io-9">
          <mxGeometry width="50" height="50" relative="1" as="geometry">
            <mxPoint x="582" y="1297" as="sourcePoint"/>
            <mxPoint x="113" y="1528" as="targetPoint"/>
          </mxGeometry>
        </mxCell>
        <mxCell id="VJcRAeQI5A_FNW1bYBen-45" value="" style="endArrow=none;html=1;strokeColor=#000000;strokeWidth=4;entryX=1;entryY=0.75;entryDx=0;entryDy=0;" edge="1" parent="1">
          <mxGeometry width="50" height="50" relative="1" as="geometry">
            <mxPoint x="636" y="1332" as="sourcePoint"/>
            <mxPoint x="269" y="1337" as="targetPoint"/>
          </mxGeometry>
        </mxCell>
        <mxCell id="VJcRAeQI5A_FNW1bYBen-47" value="" style="endArrow=none;html=1;strokeColor=#000000;strokeWidth=4;" edge="1" parent="1">
          <mxGeometry width="50" height="50" relative="1" as="geometry">
            <mxPoint x="632.5" y="1057" as="sourcePoint"/>
            <mxPoint x="633" y="1331" as="targetPoint"/>
          </mxGeometry>
        </mxCell>
      </root>
    </mxGraphModel>
  </diagram>
</mxfile>
